<?xml version="1.0" encoding="UTF-8"?>
<svg version="1.1" xmlns="http://www.w3.org/2000/svg" width="204" height="192">
<path d="M0 0 C67.32 0 134.64 0 204 0 C204 63.36 204 126.72 204 192 C136.68 192 69.36 192 0 192 C0 128.64 0 65.28 0 0 Z " fill="#000000" transform="translate(0,0)"/>
<path d="M0 0 C1.19449586 0.94959922 2.38268295 1.9072238 3.5625 2.875 C4.573125 3.65875 5.58375 4.4425 6.625 5.25 C21.1540375 18.23339521 29.59669454 36.33759147 31 55.7421875 C31.86270942 76.952423 24.68002525 96.63936663 10.75 112.625 C6.10288335 117.54424511 1.35064995 121.38922958 -4.4375 124.875 C-6.12166016 125.91333984 -6.12166016 125.91333984 -7.83984375 126.97265625 C-25.05168708 137.14089076 -46.0072271 138.66159472 -65.29125977 133.85009766 C-85.68105524 128.07103061 -101.57746515 113.52780603 -111.8671875 95.26953125 C-120.7609503 76.04395943 -121.79034125 55.90409673 -115.4375 35.875 C-115.14875 34.95203125 -114.86 34.0290625 -114.5625 33.078125 C-107.98656633 14.64202523 -92.85629964 0.43585047 -75.7265625 -8.1953125 C-70.46151665 -10.66818264 -65.18215273 -12.22848601 -59.4375 -13.125 C-58.0453125 -13.39183594 -58.0453125 -13.39183594 -56.625 -13.6640625 C-36.08409295 -16.63443876 -16.74158615 -12.2330234 0 0 Z " fill="#030303" transform="translate(146.4375,35.125)"/>
<path d="M0 0 C1.19449586 0.94959922 2.38268295 1.9072238 3.5625 2.875 C4.573125 3.65875 5.58375 4.4425 6.625 5.25 C21.1540375 18.23339521 29.59669454 36.33759147 31 55.7421875 C31.86270942 76.952423 24.68002525 96.63936663 10.75 112.625 C6.10288335 117.54424511 1.35064995 121.38922958 -4.4375 124.875 C-6.12166016 125.91333984 -6.12166016 125.91333984 -7.83984375 126.97265625 C-25.05168708 137.14089076 -46.0072271 138.66159472 -65.29125977 133.85009766 C-85.68105524 128.07103061 -101.57746515 113.52780603 -111.8671875 95.26953125 C-120.7609503 76.04395943 -121.79034125 55.90409673 -115.4375 35.875 C-115.14875 34.95203125 -114.86 34.0290625 -114.5625 33.078125 C-107.98656633 14.64202523 -92.85629964 0.43585047 -75.7265625 -8.1953125 C-70.46151665 -10.66818264 -65.18215273 -12.22848601 -59.4375 -13.125 C-58.0453125 -13.39183594 -58.0453125 -13.39183594 -56.625 -13.6640625 C-36.08409295 -16.63443876 -16.74158615 -12.2330234 0 0 Z M-91.8125 18.375 C-93.04485451 19.85532828 -94.25551893 21.3541482 -95.4375 22.875 C-95.89640625 23.46410156 -96.3553125 24.05320312 -96.828125 24.66015625 C-99.88044724 29.05511391 -101.77411201 33.90897662 -103.6875 38.875 C-103.94611816 39.53959229 -104.20473633 40.20418457 -104.47119141 40.88891602 C-110.27881545 56.64776245 -107.78117974 73.36359671 -101.6875 88.625 C-94.31034535 103.95790966 -81.63992598 115.28412371 -65.78027344 121.21240234 C-52.03090529 125.84215236 -37.191204 125.22026363 -23.4375 120.875 C-22.5815625 120.61976563 -21.725625 120.36453125 -20.84375 120.1015625 C-6.73485059 115.23488517 5.00859001 103.37760424 12.28125 90.58984375 C19.71152041 74.84582565 21.08823966 56.38045613 15.5625 39.875 C15.29566406 39.02679688 15.02882813 38.17859375 14.75390625 37.3046875 C9.39076411 22.0972 -3.42706937 9.95395588 -17.58789062 2.70458984 C-42.82270187 -8.61376926 -73.30300464 -1.80452502 -91.8125 18.375 Z " fill="#F7F7F7" transform="translate(146.4375,35.125)"/>
<path d="M0 0 C3.4375 0.875 3.4375 0.875 5.4375 3.875 C5.76015942 5.42762611 6.02573422 6.99263956 6.25 8.5625 C7.92755049 17.55312216 13.14389024 23.86947317 20.5625 29.0625 C29.70565458 33.96132686 42.23423347 34.21331041 52.14453125 31.6875 C60.11322355 28.86384072 66.34427439 24.32711838 70.4375 16.875 C71.68273626 13.92709375 72.6088119 10.9632443 73.4375 7.875 C75.38555195 0.92694805 75.38555195 0.92694805 76.4375 -0.125 C81.8048293 -0.59172429 81.8048293 -0.59172429 84.10546875 1.10546875 C86.71662105 4.57424292 85.9588539 8.75103208 85.4375 12.875 C82.44233433 23.97572702 76.10016122 32.73136563 66.4375 38.875 C53.12299736 46.29427631 40.02479347 47.99571744 24.89453125 45.2265625 C14.49198448 41.71401424 3.22412595 33.74179184 -2.1328125 24.02734375 C-4.60412288 18.66813067 -6.70621404 13.82701401 -6.8125 7.875 C-6.83828125 7.00875 -6.8640625 6.1425 -6.890625 5.25 C-6.5625 2.875 -6.5625 2.875 -5.26953125 1.0546875 C-3.5625 -0.125 -3.5625 -0.125 0 0 Z " fill="#F4F4F4" transform="translate(62.5625,102.125)"/>
<path d="M0 0 C2.71990769 0.61059152 5.14040541 0.34199929 7.91796875 0.16015625 C12.31229511 0.11186695 14.82856366 0.36505598 18.23046875 3.22265625 C21.79808885 6.73702829 23.41172305 10.14698624 23.60546875 15.16015625 C23.34364775 24.12752536 17.00740551 29.84418758 11.16796875 36.03515625 C10.67844727 36.57253418 10.18892578 37.10991211 9.68457031 37.66357422 C7.16782023 40.2126754 5.2547229 41.43429163 1.77734375 42.328125 C-3.88192451 41.00963591 -6.81678572 37.37270136 -10.70703125 33.22265625 C-11.46951172 32.44535156 -12.23199219 31.66804688 -13.01757812 30.8671875 C-21.16293784 22.44095331 -21.16293784 22.44095331 -21.26953125 15.59765625 C-21.16356673 10.79393128 -20.13301893 8.1487774 -16.89453125 4.47265625 C-11.67960117 -0.12144882 -6.9128079 -1.92418364 0 0 Z " fill="#F5F5F5" transform="translate(74.89453125,54.52734375)"/>
<path d="M0 0 C2.56681801 0.59345604 4.82561353 0.42912831 7.453125 0.29296875 C12.528695 0.25917667 15.24321998 0.92616654 19.078125 4.48046875 C23.00758967 8.82356128 23.53722527 12.29029015 23.609375 17.91796875 C22.2189049 24.62494215 16.39960306 29.61585988 11.765625 34.35546875 C11.12689453 35.04382813 10.48816406 35.7321875 9.83007812 36.44140625 C6.66340772 39.67545262 4.91280214 41.31353332 0.38671875 42.21875 C-3.71555695 41.30336617 -4.93770203 40.04257509 -7.546875 36.79296875 C-8.30613281 35.87644531 -9.06539062 34.95992187 -9.84765625 34.015625 C-10.53214844 33.17902344 -11.21664062 32.34242187 -11.921875 31.48046875 C-12.85 30.57296875 -13.778125 29.66546875 -14.734375 28.73046875 C-18.80447998 24.54407505 -21.16449808 21.40013785 -21.421875 15.48046875 C-21.2171148 10.77804474 -20.08622811 8.07243715 -16.921875 4.48046875 C-11.67919344 -0.13808406 -6.94288082 -1.87683567 0 0 Z " fill="#F7F7F7" transform="translate(126.921875,54.51953125)"/>
<path d="M0 0 C2.5 0.125 2.5 0.125 3.5 1.125 C5.69050021 1.03482004 7.878466 0.87833792 10.0625 0.6875 C11.85880859 0.53474609 11.85880859 0.53474609 13.69140625 0.37890625 C14.61824219 0.29511719 15.54507813 0.21132812 16.5 0.125 C17.1328125 1.9765625 17.1328125 1.9765625 17.5 4.125 C15.375 6.5 15.375 6.5 12.5 9.125 C10.7804197 11.08559964 9.14669934 13.10191224 7.5 15.125 C2.92923666 13.07220142 -0.41999246 10.05962501 -3.5 6.125 C-4 3.25 -4 3.25 -3.5 1.125 C-2.5 0.125 -2.5 0.125 0 0 Z " fill="#0A0A0A" transform="translate(121.5,66.875)"/>
<path d="M0 0 C2.5 0.125 2.5 0.125 3.5 1.125 C5.82817964 1.49260731 8.1618385 1.82741581 10.5 2.125 C10.5 1.465 10.5 0.805 10.5 0.125 C12.48 0.125 14.46 0.125 16.5 0.125 C17.203125 1.87109375 17.203125 1.87109375 17.5 4.125 C16.171875 6.16015625 16.171875 6.16015625 14.25 8.1875 C13.62609375 8.85910156 13.0021875 9.53070313 12.359375 10.22265625 C10.7507303 11.86847551 9.13487874 13.50525902 7.5 15.125 C3.7647526 13.87991753 2.89941469 12.17880051 0.5 9.125 C-0.2425 8.63 -0.985 8.135 -1.75 7.625 C-3.5 6.125 -3.5 6.125 -3.8125 3.5 C-3.38484499 0.24982192 -3.29684804 0.1648424 0 0 Z " fill="#0A0A0A" transform="translate(69.5,66.875)"/>
</svg>
