<svg xmlns="http://www.w3.org/2000/svg" xmlns:xlink="http://www.w3.org/1999/xlink" width="200" zoomAndPan="magnify" viewBox="0 0 150 149.999998" height="200" preserveAspectRatio="xMidYMid meet" version="1.0"><defs><clipPath id="rounded-bg"><rect x="0" y="0" width="150" height="150" rx="24" ry="24"/></clipPath><g/><clipPath id="3fa22b33dc"><rect x="0" width="89" y="0" height="150"/></clipPath><clipPath id="a3530cb9e0"><path d="M 0.359375 12 L 8 12 L 8 19 L 0.359375 19 Z M 0.359375 12 " clip-rule="nonzero"/></clipPath><clipPath id="c6eef0694f"><rect x="0" width="9" y="0" height="22"/></clipPath></defs><g clip-path="url(#rounded-bg)"><rect x="-15" width="180" fill="#ffffff" y="-15" height="179.999997" fill-opacity="1"/><rect x="-15" width="180" fill="#ffffff" y="-15" height="179.999997" fill-opacity="1"/><g transform="matrix(1, 0, 0, 1, 46, -0.000000000000007527)"><g clip-path="url(#3fa22b33dc)"><g fill="#000000" fill-opacity="1"><g transform="translate(23.997441, 127.439649)"><g><path d="M 5.09375 -110.203125 L 37.546875 -116.1875 L 37.59375 -99.8125 L 21.765625 -96.890625 L 22.078125 -67.28125 L 36.40625 -69.921875 L 36.46875 -53.546875 L 22.125 -50.90625 L 22.4375 -20.515625 L 39.046875 -23.59375 L 39.25 -7.234375 L 6.03125 -1.109375 Z M 5.09375 -110.203125 "/></g></g></g></g></g><g fill="#ffc509" fill-opacity="1"><g transform="translate(33.244912, 141.0475)"><g><path d="M 17.203125 -121.015625 L 41.8125 -125.171875 L 54.953125 -9.28125 L 37.234375 -6.28125 L 35.015625 -29.53125 L 21.390625 -27.234375 L 19.203125 -3.234375 L 0.8125 -0.140625 Z M 33.578125 -47.015625 L 30 -85.203125 C 29.695312 -88.972656 29.488281 -92.34375 29.375 -95.3125 C 29.269531 -98.28125 29.226562 -101.0625 29.25 -103.65625 L 28.578125 -103.546875 C 28.460938 -100.929688 28.265625 -98.109375 27.984375 -95.078125 C 27.710938 -92.046875 27.398438 -88.585938 27.046875 -84.703125 L 23.25 -45.265625 Z M 33.578125 -47.015625 "/></g></g></g><g transform="matrix(1, 0, 0, 1, 111, 102)"><g clip-path="url(#c6eef0694f)"><g clip-path="url(#a3530cb9e0)"><g fill="#ffffff" fill-opacity="1"><g transform="translate(1.910034, 16.822569)"><g><path d="M 1.972656 2.101562 C 1.558594 2.101562 1.171875 2.039062 0.8125 1.910156 C 0.386719 1.757812 0.0195312 1.519531 -0.289062 1.203125 C -0.566406 0.914062 -0.777344 0.589844 -0.921875 0.222656 C -1.066406 -0.132812 -1.136719 -0.507812 -1.136719 -0.90625 C -1.136719 -1.804688 -0.847656 -2.566406 -0.269531 -3.191406 C 0.0390625 -3.527344 0.402344 -3.78125 0.816406 -3.953125 C 1.207031 -4.117188 1.628906 -4.195312 2.074219 -4.195312 C 2.488281 -4.195312 2.875 -4.132812 3.234375 -4.003906 C 3.660156 -3.851562 4.027344 -3.617188 4.335938 -3.296875 C 4.613281 -3.007812 4.828125 -2.683594 4.972656 -2.320312 C 5.113281 -1.960938 5.183594 -1.585938 5.183594 -1.1875 C 5.183594 -0.289062 4.894531 0.472656 4.316406 1.097656 C 4.007812 1.433594 3.644531 1.6875 3.230469 1.859375 C 2.839844 2.023438 2.421875 2.101562 1.972656 2.101562 Z M 1.972656 -1.699219 C 1.914062 -1.699219 1.847656 -1.683594 1.773438 -1.652344 C 1.675781 -1.613281 1.589844 -1.554688 1.523438 -1.480469 C 1.472656 -1.425781 1.433594 -1.359375 1.40625 -1.285156 C 1.390625 -1.242188 1.382812 -1.210938 1.382812 -1.1875 C 1.382812 -1.101562 1.398438 -1.007812 1.4375 -0.914062 C 1.480469 -0.8125 1.535156 -0.722656 1.605469 -0.652344 C 1.707031 -0.546875 1.820312 -0.472656 1.945312 -0.425781 C 2.003906 -0.40625 2.046875 -0.394531 2.074219 -0.394531 C 2.132812 -0.394531 2.199219 -0.410156 2.273438 -0.441406 C 2.375 -0.484375 2.457031 -0.539062 2.523438 -0.613281 C 2.578125 -0.667969 2.617188 -0.734375 2.644531 -0.808594 C 2.660156 -0.851562 2.667969 -0.882812 2.667969 -0.90625 C 2.667969 -0.996094 2.648438 -1.085938 2.609375 -1.179688 C 2.570312 -1.28125 2.515625 -1.371094 2.441406 -1.445312 C 2.34375 -1.546875 2.226562 -1.621094 2.101562 -1.667969 C 2.042969 -1.6875 2 -1.699219 1.972656 -1.699219 Z M 1.972656 -1.699219 "/></g></g></g></g><g fill="#000000" fill-opacity="1"><g transform="translate(1.910034, 16.822569)"><g><path d="M 1.96875 0.203125 C 1.582031 0.203125 1.285156 0.0976562 1.078125 -0.109375 C 0.867188 -0.328125 0.765625 -0.59375 0.765625 -0.90625 C 0.765625 -1.3125 0.882812 -1.644531 1.125 -1.90625 C 1.363281 -2.164062 1.679688 -2.296875 2.078125 -2.296875 C 2.460938 -2.296875 2.757812 -2.1875 2.96875 -1.96875 C 3.175781 -1.757812 3.28125 -1.5 3.28125 -1.1875 C 3.28125 -0.78125 3.160156 -0.445312 2.921875 -0.1875 C 2.679688 0.0703125 2.363281 0.203125 1.96875 0.203125 Z M 1.96875 0.203125 "/></g></g></g></g></g></g></svg>