<?xml version="1.0" encoding="UTF-8"?>
<svg version="1.1" xmlns="http://www.w3.org/2000/svg" width="200" height="200">
<defs><clipPath id="rc"><rect width="200" height="200" rx="40" ry="40"/></clipPath></defs>
<g clip-path="url(#rc)">
<path d="M0 0 C66 0 132 0 200 0 C200 66 200 132 200 200 C134 200 68 200 0 200 C0 134 0 68 0 0 Z " fill="#FEFEFE" transform="translate(0,0)"/>
<path d="M0 0 C0 6.93 0 13.86 0 21 C-7.10588259 22.75815652 -12.63169951 24 -20 24 C-20 36.54 -20 49.08 -20 62 C-15.05 61.01 -10.1 60.02 -5 59 C-4.01 59 -3.02 59 -2 59 C-2 65.93 -2 72.86 -2 80 C-4.59875 80.495 -7.1975 80.99 -9.875 81.5 C-10.69210449 81.65662109 -11.50920898 81.81324219 -12.35107422 81.97460938 C-17.77777778 83 -17.77777778 83 -20 83 C-20 95.87 -20 108.74 -20 122 C-18.02 121.34 -16.04 120.68 -14 120 C-12.15430798 119.58529528 -10.29953629 119.20873623 -8.4375 118.875 C-7.52871094 118.70742187 -6.61992187 118.53984375 -5.68359375 118.3671875 C-3 118 -3 118 2 118 C2 124.93 2 131.86 2 139 C-6.91 140.65 -15.82 142.3 -25 144 C-25 147.3 -25 150.6 -25 154 C-27.89503383 154.50505263 -30.79087953 155.0042022 -33.6875 155.5 C-34.50412109 155.64308594 -35.32074219 155.78617188 -36.16210938 155.93359375 C-40.14978248 156.61165962 -43.93730404 157.19858392 -48 157 C-48.34011625 153.83402429 -48.67083187 150.6671312 -49 147.5 C-49.09539062 146.613125 -49.19078125 145.72625 -49.2890625 144.8125 C-49.37929687 143.9359375 -49.46953125 143.059375 -49.5625 142.15625 C-49.64628906 141.36025391 -49.73007813 140.56425781 -49.81640625 139.74414062 C-50.05551504 136.17022731 -50 132.58190304 -50 129 C-58.415 129.99 -58.415 129.99 -67 131 C-67.13277344 132.4953125 -67.26554687 133.990625 -67.40234375 135.53125 C-67.58065605 137.52083989 -67.75904556 139.51042286 -67.9375 141.5 C-68.02451172 142.48226562 -68.11152344 143.46453125 -68.20117188 144.4765625 C-68.69841092 150.00144082 -69.27328115 155.50050598 -70 161 C-75.14315734 162.60850387 -80.08852151 163.52795025 -85.4375 164.125 C-86.16904297 164.21136719 -86.90058594 164.29773438 -87.65429688 164.38671875 C-89.43560094 164.59628393 -91.21772281 164.79887868 -93 165 C-93.19822328 157.20321749 -92.72201685 149.92146467 -91.375 142.25 C-89.30751262 129.68271744 -87.7274672 117.07804829 -86.1875 104.4375 C-84.07333795 87.16078105 -81.78636461 69.91646708 -79.3125 52.6875 C-79.16815521 51.67936249 -79.02381042 50.67122498 -78.87509155 49.63253784 C-77.02479914 36.73734166 -75.06718752 23.86218849 -73 11 C-69.29361153 10.34268018 -65.58460413 9.70140083 -61.875 9.0625 C-60.84761719 8.88009766 -59.82023437 8.69769531 -58.76171875 8.50976562 C-53.24436165 7.56735991 -47.82837824 6.87818264 -42.23828125 6.5625 C-34.11314814 6.05439784 -26.28025712 4.52628963 -18.3125 2.9375 C-16.15536643 2.5136955 -13.99780475 2.0922707 -11.83964539 1.67372131 C-9.91082907 1.29873825 -7.98332417 0.91702776 -6.0559082 0.53491211 C-3 0 -3 0 0 0 Z " fill="#FEC50C" transform="translate(143,21)"/>
<path d="M0 0 C0 6.93 0 13.86 0 21 C-7.10588259 22.75815652 -12.63169951 24 -20 24 C-20 36.54 -20 49.08 -20 62 C-15.05 61.01 -10.1 60.02 -5 59 C-4.01 59 -3.02 59 -2 59 C-2 65.93 -2 72.86 -2 80 C-4.59875 80.495 -7.1975 80.99 -9.875 81.5 C-10.69210449 81.65662109 -11.50920898 81.81324219 -12.35107422 81.97460938 C-17.77777778 83 -17.77777778 83 -20 83 C-20 95.87 -20 108.74 -20 122 C-17.03 121.01 -17.03 121.01 -14 120 C-12.15430798 119.58529528 -10.29953629 119.20873623 -8.4375 118.875 C-7.52871094 118.70742187 -6.61992187 118.53984375 -5.68359375 118.3671875 C-3 118 -3 118 2 118 C2 124.93 2 131.86 2 139 C-2.10348132 139.83683523 -6.2077128 140.66961659 -10.3125 141.5 C-11.47974609 141.73847656 -12.64699219 141.97695312 -13.84960938 142.22265625 C-14.96787109 142.44824219 -16.08613281 142.67382812 -17.23828125 142.90625 C-18.26993408 143.11572266 -19.30158691 143.32519531 -20.36450195 143.54101562 C-23 144 -23 144 -26 144 C-26.54494038 139.58373269 -27.08591088 135.16698488 -27.625 130.75 C-27.71037018 130.05113678 -27.79574036 129.35227356 -27.88369751 128.63223267 C-29.15336289 118.21660596 -30.37453218 107.79590764 -31.56640625 97.37109375 C-31.70028748 96.20174286 -31.8341687 95.03239197 -31.97210693 93.8276062 C-32.6453766 87.94309579 -33.31529855 82.05822772 -33.98095703 76.17285156 C-34.2307028 73.98371352 -34.48053608 71.79458546 -34.73046875 69.60546875 C-34.90057213 68.08716713 -34.90057213 68.08716713 -35.07411194 66.53819275 C-35.18138107 65.60286209 -35.28865021 64.66753143 -35.39916992 63.70385742 C-35.53762581 62.48082161 -35.53762581 62.48082161 -35.67887878 61.233078 C-35.98559154 59.10019648 -36.46737159 57.08562462 -37 55 C-37.27019526 52.72738909 -37.50529702 50.45051575 -37.71875 48.171875 C-37.78155151 47.50520813 -37.84435303 46.83854126 -37.90905762 46.15167236 C-38.04162218 44.73634591 -38.1726488 43.32087468 -38.30224609 41.90527344 C-38.49555729 39.7984201 -38.69462234 37.69217376 -38.89453125 35.5859375 C-39.78533026 26.06677896 -40.45567099 16.54496929 -41 7 C-35.64377827 5.99967533 -30.28692146 5.00285128 -24.92944336 4.00927734 C-23.10667285 3.6707234 -21.28408016 3.33121059 -19.46166992 2.99072266 C-16.84339732 2.50171231 -14.22450628 2.01614462 -11.60546875 1.53125 C-10.38188911 1.30157532 -10.38188911 1.30157532 -9.1335907 1.06726074 C-6.04687773 0.49848632 -3.14604068 0 0 0 Z " fill="#050403" transform="translate(143,21)"/>
<path d="M0 0 C0.66 0 1.32 0 2 0 C2.01981934 0.73935791 2.03963867 1.47871582 2.06005859 2.24047852 C2.50887748 20.30626382 2.50887748 20.30626382 4.45703125 38.25 C5.16112191 43.1127844 5.65266274 47.98497013 6.125 52.875 C6.21257568 53.74366699 6.30015137 54.61233398 6.39038086 55.50732422 C6.91607061 61.03103706 7.07846529 66.4513834 7 72 C0.565 72.495 0.565 72.495 -6 73 C-5.48105509 63.59070938 -4.80222812 54.2018434 -4 44.8125 C-3.9170166 43.82113037 -3.8340332 42.82976074 -3.74853516 41.80834961 C-3.62551025 40.39694702 -3.62551025 40.39694702 -3.5 38.95703125 C-3.4278125 38.12147705 -3.355625 37.28592285 -3.28125 36.42504883 C-3 34 -3 34 -2.50219727 31.6171875 C-1.89739196 28.46526096 -1.67646113 25.37044514 -1.46484375 22.16796875 C-1.37783203 20.87568359 -1.29082031 19.58339844 -1.20117188 18.25195312 C-1.11320976 16.89714006 -1.02532004 15.54232229 -0.9375 14.1875 C-0.84600494 12.81313092 -0.75421115 11.43878168 -0.66210938 10.06445312 C-0.4384671 6.70981903 -0.21787445 3.35501282 0 0 Z " fill="#FFFBEF" transform="translate(84,55)"/>
</g>
</svg>
