<svg xmlns="http://www.w3.org/2000/svg" xmlns:xlink="http://www.w3.org/1999/xlink" width="1400" zoomAndPan="magnify" viewBox="0 0 1050 1499.999933" height="2000" preserveAspectRatio="xMidYMid meet" version="1.0"><defs><g/><clipPath id="73b8d51b65"><path d="M 0 0 L 524.839844 0 L 524.839844 1500 L 0 1500 Z M 0 0 " clip-rule="nonzero"/></clipPath><clipPath id="673944e1a1"><path d="M 0 0 L 524.839844 0 L 524.839844 1500 L 0 1500 Z M 0 0 " clip-rule="nonzero"/></clipPath><clipPath id="d71189ed39"><rect x="0" width="525" y="0" height="1500"/></clipPath><clipPath id="e8373832a9"><path d="M 524.839844 0 L 1050 0 L 1050 1500 L 524.839844 1500 Z M 524.839844 0 " clip-rule="nonzero"/></clipPath><clipPath id="dc94d157e0"><path d="M 0.839844 0 L 526 0 L 526 1500 L 0.839844 1500 Z M 0.839844 0 " clip-rule="nonzero"/></clipPath><clipPath id="e041e7b421"><rect x="0" width="526" y="0" height="1500"/></clipPath><clipPath id="81f8cc20f3"><path d="M 0.398438 85 L 1 85 L 1 86 L 0.398438 86 Z M 0.398438 85 " clip-rule="nonzero"/></clipPath><clipPath id="d3a5ddd32f"><rect x="0" width="746" y="0" height="248"/></clipPath><clipPath id="d15247fab6"><rect x="0" width="588" y="0" height="72"/></clipPath><clipPath id="d555b23cfe"><rect x="0" width="304" y="0" height="51"/></clipPath><clipPath id="rounded-bg"><rect x="0" y="0" width="1050" height="1500" rx="60" ry="60"/></clipPath></defs><g clip-path="url(#rounded-bg)"><rect x="-105" width="1260" fill="none" y="-149.999993" height="1799.99992"/><rect x="-105" width="1260" fill="none" y="-149.999993" height="1799.99992"/><g clip-path="url(#73b8d51b65)"><g transform="matrix(1, 0, 0, 1, 0, 0.000000000000112861)"><g clip-path="url(#d71189ed39)"><g clip-path="url(#673944e1a1)"><path fill="#142745" d="M 0 0 L 524.839844 0 L 524.839844 1500.714844 L 0 1500.714844 Z M 0 0 " fill-opacity="1" fill-rule="nonzero"/></g></g></g></g><g clip-path="url(#e8373832a9)"><g transform="matrix(1, 0, 0, 1, 524, 0.000000000000112861)"><g clip-path="url(#e041e7b421)"><g clip-path="url(#dc94d157e0)"><path fill="#2e8984" d="M 0.839844 0 L 554.4375 0 L 554.4375 1500.765625 L 0.839844 1500.765625 Z M 0.839844 0 " fill-opacity="1" fill-rule="nonzero"/></g></g></g></g><g transform="matrix(1, 0, 0, 1, 152, 477)"><g clip-path="url(#d3a5ddd32f)"><g clip-path="url(#81f8cc20f3)"><g fill="#ffffff" fill-opacity="1"><g transform="translate(0.669156, 85.553409)"><g/></g></g></g><g fill="#ffffff" fill-opacity="1"><g transform="translate(23.88964, 85.553409)"><g><path d="M 21.453125 -53.921875 L 0.359375 -53.921875 L 0.359375 -61.5625 L 51.28125 -61.5625 L 51.28125 -53.921875 L 30.171875 -53.921875 L 30.171875 0 L 21.453125 0 Z M 21.453125 -53.921875 "/></g></g></g><g fill="#ffffff" fill-opacity="1"><g transform="translate(75.073547, 85.553409)"><g><path d="M 62.1875 -61.5625 L 62.1875 0 L 53.390625 0 L 53.390625 -27.4375 L 18.03125 -27.4375 L 18.03125 0 L 9.234375 0 L 9.234375 -61.5625 L 18.03125 -61.5625 L 18.03125 -35.09375 L 53.390625 -35.09375 L 53.390625 -61.5625 Z M 62.1875 -61.5625 "/></g></g></g><g fill="#ffffff" fill-opacity="1"><g transform="translate(146.045081, 85.553409)"><g><path d="M 53.921875 -7.65625 L 53.921875 0 L 9.234375 0 L 9.234375 -61.5625 L 52.6875 -61.5625 L 52.6875 -53.921875 L 18.03125 -53.921875 L 18.03125 -35 L 48.90625 -35 L 48.90625 -27.53125 L 18.03125 -27.53125 L 18.03125 -7.65625 Z M 53.921875 -7.65625 "/></g></g></g><g fill="#ffffff" fill-opacity="1"><g transform="translate(204.528409, 85.553409)"><g/></g></g><g fill="#ffffff" fill-opacity="1"><g transform="translate(227.74582, 85.553409)"><g><path d="M 50.65625 -31.921875 C 54.238281 -30.929688 57.054688 -29.128906 59.109375 -26.515625 C 61.160156 -23.910156 62.1875 -20.613281 62.1875 -16.625 C 62.1875 -11.289062 60.175781 -7.1875 56.15625 -4.3125 C 52.144531 -1.4375 46.296875 0 38.609375 0 L 9.234375 0 L 9.234375 -61.5625 L 36.859375 -61.5625 C 43.890625 -61.5625 49.320312 -60.15625 53.15625 -57.34375 C 57 -54.53125 58.921875 -50.628906 58.921875 -45.640625 C 58.921875 -42.421875 58.171875 -39.640625 56.671875 -37.296875 C 55.179688 -34.953125 53.175781 -33.160156 50.65625 -31.921875 Z M 18.03125 -54.4375 L 18.03125 -34.734375 L 36.0625 -34.734375 C 40.570312 -34.734375 44.046875 -35.566406 46.484375 -37.234375 C 48.921875 -38.910156 50.140625 -41.363281 50.140625 -44.59375 C 50.140625 -47.8125 48.921875 -50.253906 46.484375 -51.921875 C 44.046875 -53.597656 40.570312 -54.4375 36.0625 -54.4375 Z M 38.265625 -7.125 C 43.242188 -7.125 46.992188 -7.941406 49.515625 -9.578125 C 52.035156 -11.222656 53.296875 -13.804688 53.296875 -17.328125 C 53.296875 -24.191406 48.285156 -27.625 38.265625 -27.625 L 18.03125 -27.625 L 18.03125 -7.125 Z M 38.265625 -7.125 "/></g></g></g><g fill="#ffffff" fill-opacity="1"><g transform="translate(293.880371, 85.553409)"><g><path d="M 9.234375 -61.5625 L 18.03125 -61.5625 L 18.03125 0 L 9.234375 0 Z M 9.234375 -61.5625 "/></g></g></g><g fill="#ffffff" fill-opacity="1"><g transform="translate(320.703518, 85.553409)"><g><path d="M 9.234375 -61.5625 L 18.03125 -61.5625 L 18.03125 -7.65625 L 51.359375 -7.65625 L 51.359375 0 L 9.234375 0 Z M 9.234375 -61.5625 "/></g></g></g><g fill="#ffffff" fill-opacity="1"><g transform="translate(372.503049, 85.553409)"><g><path d="M 9.234375 -61.5625 L 18.03125 -61.5625 L 18.03125 0 L 9.234375 0 Z M 9.234375 -61.5625 "/></g></g></g><g fill="#ffffff" fill-opacity="1"><g transform="translate(399.326195, 85.553409)"><g><path d="M 62.1875 -61.5625 L 62.1875 0 L 54.96875 0 L 18.03125 -45.90625 L 18.03125 0 L 9.234375 0 L 9.234375 -61.5625 L 16.453125 -61.5625 L 53.390625 -15.65625 L 53.390625 -61.5625 Z M 62.1875 -61.5625 "/></g></g></g><g fill="#ffffff" fill-opacity="1"><g transform="translate(470.297755, 85.553409)"><g><path d="M 51.890625 -31.140625 L 60.328125 -31.140625 L 60.328125 -7.125 C 57.285156 -4.601562 53.738281 -2.664062 49.6875 -1.3125 C 45.644531 0.03125 41.425781 0.703125 37.03125 0.703125 C 30.8125 0.703125 25.207031 -0.65625 20.21875 -3.375 C 15.238281 -6.101562 11.328125 -9.859375 8.484375 -14.640625 C 5.640625 -19.421875 4.21875 -24.800781 4.21875 -30.78125 C 4.21875 -36.757812 5.640625 -42.148438 8.484375 -46.953125 C 11.328125 -51.765625 15.253906 -55.519531 20.265625 -58.21875 C 25.285156 -60.914062 30.929688 -62.265625 37.203125 -62.265625 C 42.128906 -62.265625 46.597656 -61.457031 50.609375 -59.84375 C 54.628906 -58.238281 58.046875 -55.878906 60.859375 -52.765625 L 55.40625 -47.3125 C 50.476562 -52.0625 44.53125 -54.4375 37.5625 -54.4375 C 32.863281 -54.4375 28.648438 -53.425781 24.921875 -51.40625 C 21.203125 -49.382812 18.285156 -46.570312 16.171875 -42.96875 C 14.066406 -39.363281 13.015625 -35.300781 13.015625 -30.78125 C 13.015625 -26.320312 14.066406 -22.289062 16.171875 -18.6875 C 18.285156 -15.082031 21.203125 -12.253906 24.921875 -10.203125 C 28.648438 -8.148438 32.832031 -7.125 37.46875 -7.125 C 42.976562 -7.125 47.785156 -8.441406 51.890625 -11.078125 Z M 51.890625 -31.140625 "/></g></g></g><g fill="#ffffff" fill-opacity="1"><g transform="translate(537.751451, 85.553409)"><g><path d="M 34.734375 0.703125 C 26.523438 0.703125 20.132812 -1.640625 15.5625 -6.328125 C 10.988281 -11.023438 8.703125 -17.769531 8.703125 -26.5625 L 8.703125 -61.5625 L 17.5 -61.5625 L 17.5 -26.90625 C 17.5 -13.71875 23.273438 -7.125 34.828125 -7.125 C 40.453125 -7.125 44.757812 -8.75 47.75 -12 C 50.75 -15.257812 52.25 -20.226562 52.25 -26.90625 L 52.25 -61.5625 L 60.78125 -61.5625 L 60.78125 -26.5625 C 60.78125 -17.707031 58.492188 -10.945312 53.921875 -6.28125 C 49.347656 -1.625 42.953125 0.703125 34.734375 0.703125 Z M 34.734375 0.703125 "/></g></g></g><g fill="#ffffff" fill-opacity="1"><g transform="translate(605.556839, 85.553409)"><g><path d="M 48.46875 -15.390625 L 15.75 -15.390625 L 8.96875 0 L -0.09375 0 L 27.796875 -61.5625 L 36.5 -61.5625 L 64.46875 0 L 55.234375 0 Z M 45.390625 -22.421875 L 32.109375 -52.59375 L 18.828125 -22.421875 Z M 45.390625 -22.421875 "/></g></g></g><g fill="#ffffff" fill-opacity="1"><g transform="translate(669.4928, 85.553409)"><g><path d="M 9.234375 -61.5625 L 18.03125 -61.5625 L 18.03125 -7.65625 L 51.359375 -7.65625 L 51.359375 0 L 9.234375 0 Z M 9.234375 -61.5625 "/></g></g></g><g fill="#ffffff" fill-opacity="1"><g transform="translate(721.317946, 85.553409)"><g/></g></g><g fill="#ffffff" fill-opacity="1"><g transform="translate(14.096889, 217.497839)"><g><path d="M 72.328125 -15.046875 L 72.328125 0 L 9.609375 0 L 9.609375 -81.015625 L 70.828125 -81.015625 L 70.828125 -65.96875 L 28.234375 -65.96875 L 28.234375 -48.375 L 65.859375 -48.375 L 65.859375 -33.796875 L 28.234375 -33.796875 L 28.234375 -15.046875 Z M 72.328125 -15.046875 "/></g></g></g><g fill="#ffffff" fill-opacity="1"><g transform="translate(95.10346, 217.497839)"><g><path d="M 60.640625 0 L 41.078125 -28.125 L 21.875 0 L 0.34375 0 L 30.328125 -41.203125 L 1.859375 -81.015625 L 23.140625 -81.015625 L 41.78125 -54.75 L 60.0625 -81.015625 L 80.3125 -81.015625 L 52.078125 -41.890625 L 82.28125 0 Z M 60.640625 0 "/></g></g></g><g fill="#ffffff" fill-opacity="1"><g transform="translate(179.350166, 217.497839)"><g><path d="M 72.328125 -15.046875 L 72.328125 0 L 9.609375 0 L 9.609375 -81.015625 L 70.828125 -81.015625 L 70.828125 -65.96875 L 28.234375 -65.96875 L 28.234375 -48.375 L 65.859375 -48.375 L 65.859375 -33.796875 L 28.234375 -33.796875 L 28.234375 -15.046875 Z M 72.328125 -15.046875 "/></g></g></g><g fill="#ffffff" fill-opacity="1"><g transform="translate(260.935378, 217.497839)"><g><path d="M 48.375 1.390625 C 40.125 1.390625 32.660156 -0.398438 25.984375 -3.984375 C 19.304688 -7.578125 14.054688 -12.554688 10.234375 -18.921875 C 6.421875 -25.285156 4.515625 -32.476562 4.515625 -40.5 C 4.515625 -48.53125 6.421875 -55.726562 10.234375 -62.09375 C 14.054688 -68.457031 19.304688 -73.429688 25.984375 -77.015625 C 32.660156 -80.609375 40.164062 -82.40625 48.5 -82.40625 C 55.519531 -82.40625 61.863281 -81.171875 67.53125 -78.703125 C 73.195312 -76.234375 77.960938 -72.679688 81.828125 -68.046875 L 69.78125 -56.9375 C 64.3125 -63.269531 57.523438 -66.4375 49.421875 -66.4375 C 44.398438 -66.4375 39.921875 -65.332031 35.984375 -63.125 C 32.054688 -60.925781 28.992188 -57.859375 26.796875 -53.921875 C 24.597656 -49.992188 23.5 -45.519531 23.5 -40.5 C 23.5 -35.488281 24.597656 -31.015625 26.796875 -27.078125 C 28.992188 -23.140625 32.054688 -20.070312 35.984375 -17.875 C 39.921875 -15.675781 44.398438 -14.578125 49.421875 -14.578125 C 57.523438 -14.578125 64.3125 -17.78125 69.78125 -24.1875 L 81.828125 -13.078125 C 77.960938 -8.367188 73.175781 -4.78125 67.46875 -2.3125 C 61.757812 0.15625 55.394531 1.390625 48.375 1.390625 Z M 48.375 1.390625 "/></g></g></g><g fill="#ffffff" fill-opacity="1"><g transform="translate(349.232471, 217.497839)"><g><path d="M 45.59375 1.390625 C 34.019531 1.390625 25.007812 -1.8125 18.5625 -8.21875 C 12.125 -14.625 8.90625 -23.765625 8.90625 -35.640625 L 8.90625 -81.015625 L 27.65625 -81.015625 L 27.65625 -36.34375 C 27.65625 -21.832031 33.675781 -14.578125 45.71875 -14.578125 C 51.582031 -14.578125 56.054688 -16.332031 59.140625 -19.84375 C 62.222656 -23.351562 63.765625 -28.851562 63.765625 -36.34375 L 63.765625 -81.015625 L 82.28125 -81.015625 L 82.28125 -35.640625 C 82.28125 -23.765625 79.054688 -14.625 72.609375 -8.21875 C 66.171875 -1.8125 57.164062 1.390625 45.59375 1.390625 Z M 45.59375 1.390625 "/></g></g></g><g fill="#ffffff" fill-opacity="1"><g transform="translate(443.199952, 217.497839)"><g><path d="M 26.390625 -65.734375 L 0.46875 -65.734375 L 0.46875 -81.015625 L 71.0625 -81.015625 L 71.0625 -65.734375 L 45.140625 -65.734375 L 45.140625 0 L 26.390625 0 Z M 26.390625 -65.734375 "/></g></g></g><g fill="#ffffff" fill-opacity="1"><g transform="translate(518.883325, 217.497839)"><g><path d="M 9.609375 -81.015625 L 28.359375 -81.015625 L 28.359375 0 L 9.609375 0 Z M 9.609375 -81.015625 "/></g></g></g><g fill="#ffffff" fill-opacity="1"><g transform="translate(560.544107, 217.497839)"><g><path d="M 87.5 -81.015625 L 52.421875 0 L 33.90625 0 L -1.046875 -81.015625 L 19.21875 -81.015625 L 43.859375 -23.140625 L 68.859375 -81.015625 Z M 87.5 -81.015625 "/></g></g></g><g fill="#ffffff" fill-opacity="1"><g transform="translate(649.304048, 217.497839)"><g><path d="M 72.328125 -15.046875 L 72.328125 0 L 9.609375 0 L 9.609375 -81.015625 L 70.828125 -81.015625 L 70.828125 -65.96875 L 28.234375 -65.96875 L 28.234375 -48.375 L 65.859375 -48.375 L 65.859375 -33.796875 L 28.234375 -33.796875 L 28.234375 -15.046875 Z M 72.328125 -15.046875 "/></g></g></g></g></g><g transform="matrix(1, 0, 0, 1, 231, 1076)"><g clip-path="url(#d15247fab6)"><g fill="#ffffff" fill-opacity="1"><g transform="translate(39.186794, 24.496942)"><g><path d="M 19.890625 -19.453125 L 19.890625 0 L 16.28125 0 L 16.28125 -8.328125 L 6.21875 -8.328125 L 6.21875 0 L 2.609375 0 L 2.609375 -19.453125 L 6.21875 -19.453125 L 6.21875 -11.421875 L 16.28125 -11.421875 L 16.28125 -19.453125 Z M 19.890625 -19.453125 "/></g></g></g><g fill="#ffffff" fill-opacity="1"><g transform="translate(62.992383, 24.496942)"><g><path d="M 11.703125 0.28125 C 9.710938 0.28125 7.921875 -0.148438 6.328125 -1.015625 C 4.734375 -1.878906 3.484375 -3.070312 2.578125 -4.59375 C 1.671875 -6.125 1.21875 -7.832031 1.21875 -9.71875 C 1.21875 -11.613281 1.671875 -13.320312 2.578125 -14.84375 C 3.484375 -16.375 4.734375 -17.566406 6.328125 -18.421875 C 7.921875 -19.285156 9.710938 -19.71875 11.703125 -19.71875 C 13.679688 -19.71875 15.46875 -19.285156 17.0625 -18.421875 C 18.65625 -17.566406 19.90625 -16.378906 20.8125 -14.859375 C 21.71875 -13.335938 22.171875 -11.625 22.171875 -9.71875 C 22.171875 -7.8125 21.71875 -6.097656 20.8125 -4.578125 C 19.90625 -3.066406 18.65625 -1.878906 17.0625 -1.015625 C 15.46875 -0.148438 13.679688 0.28125 11.703125 0.28125 Z M 11.703125 -2.890625 C 12.992188 -2.890625 14.15625 -3.179688 15.1875 -3.765625 C 16.226562 -4.347656 17.046875 -5.160156 17.640625 -6.203125 C 18.234375 -7.253906 18.53125 -8.425781 18.53125 -9.71875 C 18.53125 -11.019531 18.234375 -12.191406 17.640625 -13.234375 C 17.046875 -14.285156 16.226562 -15.101562 15.1875 -15.6875 C 14.15625 -16.269531 12.992188 -16.5625 11.703125 -16.5625 C 10.398438 -16.5625 9.226562 -16.269531 8.1875 -15.6875 C 7.15625 -15.101562 6.34375 -14.285156 5.75 -13.234375 C 5.15625 -12.191406 4.859375 -11.019531 4.859375 -9.71875 C 4.859375 -8.425781 5.15625 -7.253906 5.75 -6.203125 C 6.34375 -5.160156 7.15625 -4.347656 8.1875 -3.765625 C 9.226562 -3.179688 10.398438 -2.890625 11.703125 -2.890625 Z M 11.703125 -2.890625 "/></g></g></g><g fill="#ffffff" fill-opacity="1"><g transform="translate(87.075757, 24.496942)"><g><path d="M 31.03125 -19.453125 L 24.59375 0 L 20.75 0 L 15.953125 -14.390625 L 11.0625 0 L 7.203125 0 L 0.75 -19.453125 L 4.5 -19.453125 L 9.328125 -4.671875 L 14.359375 -19.453125 L 17.703125 -19.453125 L 22.609375 -4.578125 L 27.59375 -19.453125 Z M 31.03125 -19.453125 "/></g></g></g><g fill="#ffffff" fill-opacity="1"><g transform="translate(120.159138, 24.496942)"><g/></g></g><g fill="#ffffff" fill-opacity="1"><g transform="translate(129.131385, 24.496942)"><g><path d="M 6.5625 -16.390625 L 0.109375 -16.390625 L 0.109375 -19.453125 L 16.609375 -19.453125 L 16.609375 -16.390625 L 10.171875 -16.390625 L 10.171875 0 L 6.5625 0 Z M 6.5625 -16.390625 "/></g></g></g><g fill="#ffffff" fill-opacity="1"><g transform="translate(146.881407, 24.496942)"><g><path d="M 11.703125 0.28125 C 9.710938 0.28125 7.921875 -0.148438 6.328125 -1.015625 C 4.734375 -1.878906 3.484375 -3.070312 2.578125 -4.59375 C 1.671875 -6.125 1.21875 -7.832031 1.21875 -9.71875 C 1.21875 -11.613281 1.671875 -13.320312 2.578125 -14.84375 C 3.484375 -16.375 4.734375 -17.566406 6.328125 -18.421875 C 7.921875 -19.285156 9.710938 -19.71875 11.703125 -19.71875 C 13.679688 -19.71875 15.46875 -19.285156 17.0625 -18.421875 C 18.65625 -17.566406 19.90625 -16.378906 20.8125 -14.859375 C 21.71875 -13.335938 22.171875 -11.625 22.171875 -9.71875 C 22.171875 -7.8125 21.71875 -6.097656 20.8125 -4.578125 C 19.90625 -3.066406 18.65625 -1.878906 17.0625 -1.015625 C 15.46875 -0.148438 13.679688 0.28125 11.703125 0.28125 Z M 11.703125 -2.890625 C 12.992188 -2.890625 14.15625 -3.179688 15.1875 -3.765625 C 16.226562 -4.347656 17.046875 -5.160156 17.640625 -6.203125 C 18.234375 -7.253906 18.53125 -8.425781 18.53125 -9.71875 C 18.53125 -11.019531 18.234375 -12.191406 17.640625 -13.234375 C 17.046875 -14.285156 16.226562 -15.101562 15.1875 -15.6875 C 14.15625 -16.269531 12.992188 -16.5625 11.703125 -16.5625 C 10.398438 -16.5625 9.226562 -16.269531 8.1875 -15.6875 C 7.15625 -15.101562 6.34375 -14.285156 5.75 -13.234375 C 5.15625 -12.191406 4.859375 -11.019531 4.859375 -9.71875 C 4.859375 -8.425781 5.15625 -7.253906 5.75 -6.203125 C 6.34375 -5.160156 7.15625 -4.347656 8.1875 -3.765625 C 9.226562 -3.179688 10.398438 -2.890625 11.703125 -2.890625 Z M 11.703125 -2.890625 "/></g></g></g><g fill="#ffffff" fill-opacity="1"><g transform="translate(171.5759, 24.496942)"><g/></g></g><g fill="#ffffff" fill-opacity="1"><g transform="translate(180.548147, 24.496942)"><g><path d="M 16.390625 -10.109375 C 17.460938 -9.753906 18.3125 -9.164062 18.9375 -8.34375 C 19.570312 -7.519531 19.890625 -6.5 19.890625 -5.28125 C 19.890625 -3.59375 19.238281 -2.289062 17.9375 -1.375 C 16.644531 -0.457031 14.757812 0 12.28125 0 L 2.609375 0 L 2.609375 -19.453125 L 11.71875 -19.453125 C 14.019531 -19.453125 15.789062 -19 17.03125 -18.09375 C 18.269531 -17.195312 18.890625 -15.960938 18.890625 -14.390625 C 18.890625 -13.429688 18.664062 -12.578125 18.21875 -11.828125 C 17.78125 -11.085938 17.171875 -10.515625 16.390625 -10.109375 Z M 6.21875 -16.609375 L 6.21875 -11.25 L 11.328125 -11.25 C 12.585938 -11.25 13.554688 -11.472656 14.234375 -11.921875 C 14.910156 -12.378906 15.25 -13.046875 15.25 -13.921875 C 15.25 -14.804688 14.910156 -15.472656 14.234375 -15.921875 C 13.554688 -16.378906 12.585938 -16.609375 11.328125 -16.609375 Z M 12.0625 -2.828125 C 14.851562 -2.828125 16.25 -3.765625 16.25 -5.640625 C 16.25 -7.515625 14.851562 -8.453125 12.0625 -8.453125 L 6.21875 -8.453125 L 6.21875 -2.828125 Z M 12.0625 -2.828125 "/></g></g></g><g fill="#ffffff" fill-opacity="1"><g transform="translate(202.992631, 24.496942)"><g><path d="M 10.96875 0.28125 C 8.28125 0.28125 6.1875 -0.472656 4.6875 -1.984375 C 3.1875 -3.492188 2.4375 -5.65625 2.4375 -8.46875 L 2.4375 -19.453125 L 6.0625 -19.453125 L 6.0625 -8.609375 C 6.0625 -4.796875 7.707031 -2.890625 11 -2.890625 C 14.28125 -2.890625 15.921875 -4.796875 15.921875 -8.609375 L 15.921875 -19.453125 L 19.46875 -19.453125 L 19.46875 -8.46875 C 19.46875 -5.65625 18.722656 -3.492188 17.234375 -1.984375 C 15.742188 -0.472656 13.65625 0.28125 10.96875 0.28125 Z M 10.96875 0.28125 "/></g></g></g><g fill="#ffffff" fill-opacity="1"><g transform="translate(226.214889, 24.496942)"><g><path d="M 2.609375 -19.453125 L 6.21875 -19.453125 L 6.21875 0 L 2.609375 0 Z M 2.609375 -19.453125 "/></g></g></g><g fill="#ffffff" fill-opacity="1"><g transform="translate(236.381559, 24.496942)"><g><path d="M 2.609375 -19.453125 L 6.21875 -19.453125 L 6.21875 -3.0625 L 16.390625 -3.0625 L 16.390625 0 L 2.609375 0 Z M 2.609375 -19.453125 "/></g></g></g><g fill="#ffffff" fill-opacity="1"><g transform="translate(254.326026, 24.496942)"><g><path d="M 2.609375 -19.453125 L 11.109375 -19.453125 C 13.179688 -19.453125 15.023438 -19.046875 16.640625 -18.234375 C 18.253906 -17.429688 19.503906 -16.289062 20.390625 -14.8125 C 21.273438 -13.34375 21.71875 -11.644531 21.71875 -9.71875 C 21.71875 -7.789062 21.273438 -6.09375 20.390625 -4.625 C 19.503906 -3.15625 18.253906 -2.015625 16.640625 -1.203125 C 15.023438 -0.398438 13.179688 0 11.109375 0 L 2.609375 0 Z M 10.953125 -3.0625 C 12.367188 -3.0625 13.617188 -3.332031 14.703125 -3.875 C 15.785156 -4.414062 16.617188 -5.191406 17.203125 -6.203125 C 17.785156 -7.210938 18.078125 -8.382812 18.078125 -9.71875 C 18.078125 -11.050781 17.785156 -12.222656 17.203125 -13.234375 C 16.617188 -14.242188 15.785156 -15.019531 14.703125 -15.5625 C 13.617188 -16.113281 12.367188 -16.390625 10.953125 -16.390625 L 6.21875 -16.390625 L 6.21875 -3.0625 Z M 10.953125 -3.0625 "/></g></g></g><g fill="#ffffff" fill-opacity="1"><g transform="translate(278.57608, 24.496942)"><g/></g></g><g fill="#ffffff" fill-opacity="1"><g transform="translate(287.548326, 24.496942)"><g><path d="M 6.5625 -16.390625 L 0.109375 -16.390625 L 0.109375 -19.453125 L 16.609375 -19.453125 L 16.609375 -16.390625 L 10.171875 -16.390625 L 10.171875 0 L 6.5625 0 Z M 6.5625 -16.390625 "/></g></g></g><g fill="#ffffff" fill-opacity="1"><g transform="translate(305.576133, 24.496942)"><g><path d="M 19.890625 -19.453125 L 19.890625 0 L 16.28125 0 L 16.28125 -8.328125 L 6.21875 -8.328125 L 6.21875 0 L 2.609375 0 L 2.609375 -19.453125 L 6.21875 -19.453125 L 6.21875 -11.421875 L 16.28125 -11.421875 L 16.28125 -19.453125 Z M 19.890625 -19.453125 "/></g></g></g><g fill="#ffffff" fill-opacity="1"><g transform="translate(329.381722, 24.496942)"><g><path d="M 17.203125 -3.03125 L 17.203125 0 L 2.609375 0 L 2.609375 -19.453125 L 16.8125 -19.453125 L 16.8125 -16.421875 L 6.21875 -16.421875 L 6.21875 -11.359375 L 15.609375 -11.359375 L 15.609375 -8.390625 L 6.21875 -8.390625 L 6.21875 -3.03125 Z M 17.203125 -3.03125 "/></g></g></g><g fill="#ffffff" fill-opacity="1"><g transform="translate(349.298414, 24.496942)"><g/></g></g><g fill="#ffffff" fill-opacity="1"><g transform="translate(358.27066, 24.496942)"><g><path d="M 15.21875 -4.5 L 5.5 -4.5 L 3.578125 0 L -0.140625 0 L 8.609375 -19.453125 L 12.171875 -19.453125 L 20.953125 0 L 17.171875 0 Z M 14.03125 -7.328125 L 10.359375 -15.828125 L 6.71875 -7.328125 Z M 14.03125 -7.328125 "/></g></g></g><g fill="#ffffff" fill-opacity="1"><g transform="translate(380.104024, 24.496942)"><g><path d="M 15.890625 -9.953125 L 19.3125 -9.953125 L 19.3125 -2.1875 C 18.3125 -1.394531 17.144531 -0.785156 15.8125 -0.359375 C 14.476562 0.0664062 13.109375 0.28125 11.703125 0.28125 C 9.710938 0.28125 7.921875 -0.148438 6.328125 -1.015625 C 4.734375 -1.878906 3.484375 -3.066406 2.578125 -4.578125 C 1.671875 -6.097656 1.21875 -7.8125 1.21875 -9.71875 C 1.21875 -11.625 1.671875 -13.335938 2.578125 -14.859375 C 3.484375 -16.378906 4.738281 -17.566406 6.34375 -18.421875 C 7.945312 -19.285156 9.75 -19.71875 11.75 -19.71875 C 13.382812 -19.71875 14.867188 -19.445312 16.203125 -18.90625 C 17.535156 -18.375 18.65625 -17.59375 19.5625 -16.5625 L 17.28125 -14.328125 C 15.800781 -15.816406 14.015625 -16.5625 11.921875 -16.5625 C 10.546875 -16.5625 9.328125 -16.269531 8.265625 -15.6875 C 7.203125 -15.113281 6.367188 -14.304688 5.765625 -13.265625 C 5.160156 -12.234375 4.859375 -11.050781 4.859375 -9.71875 C 4.859375 -8.425781 5.160156 -7.257812 5.765625 -6.21875 C 6.367188 -5.1875 7.203125 -4.375 8.265625 -3.78125 C 9.328125 -3.1875 10.535156 -2.890625 11.890625 -2.890625 C 13.410156 -2.890625 14.742188 -3.222656 15.890625 -3.890625 Z M 15.890625 -9.953125 "/></g></g></g><g fill="#ffffff" fill-opacity="1"><g transform="translate(402.854055, 24.496942)"><g><path d="M 2.609375 -19.453125 L 6.21875 -19.453125 L 6.21875 0 L 2.609375 0 Z M 2.609375 -19.453125 "/></g></g></g><g fill="#ffffff" fill-opacity="1"><g transform="translate(413.020725, 24.496942)"><g><path d="M 2.609375 -19.453125 L 6.21875 -19.453125 L 6.21875 -3.0625 L 16.390625 -3.0625 L 16.390625 0 L 2.609375 0 Z M 2.609375 -19.453125 "/></g></g></g><g fill="#ffffff" fill-opacity="1"><g transform="translate(430.965192, 24.496942)"><g><path d="M 17.203125 -3.03125 L 17.203125 0 L 2.609375 0 L 2.609375 -19.453125 L 16.8125 -19.453125 L 16.8125 -16.421875 L 6.21875 -16.421875 L 6.21875 -11.359375 L 15.609375 -11.359375 L 15.609375 -8.390625 L 6.21875 -8.390625 L 6.21875 -3.03125 Z M 17.203125 -3.03125 "/></g></g></g><g fill="#ffffff" fill-opacity="1"><g transform="translate(450.881883, 24.496942)"><g/></g></g><g fill="#ffffff" fill-opacity="1"><g transform="translate(459.854129, 24.496942)"><g><path d="M 16.390625 -10.109375 C 17.460938 -9.753906 18.3125 -9.164062 18.9375 -8.34375 C 19.570312 -7.519531 19.890625 -6.5 19.890625 -5.28125 C 19.890625 -3.59375 19.238281 -2.289062 17.9375 -1.375 C 16.644531 -0.457031 14.757812 0 12.28125 0 L 2.609375 0 L 2.609375 -19.453125 L 11.71875 -19.453125 C 14.019531 -19.453125 15.789062 -19 17.03125 -18.09375 C 18.269531 -17.195312 18.890625 -15.960938 18.890625 -14.390625 C 18.890625 -13.429688 18.664062 -12.578125 18.21875 -11.828125 C 17.78125 -11.085938 17.171875 -10.515625 16.390625 -10.109375 Z M 6.21875 -16.609375 L 6.21875 -11.25 L 11.328125 -11.25 C 12.585938 -11.25 13.554688 -11.472656 14.234375 -11.921875 C 14.910156 -12.378906 15.25 -13.046875 15.25 -13.921875 C 15.25 -14.804688 14.910156 -15.472656 14.234375 -15.921875 C 13.554688 -16.378906 12.585938 -16.609375 11.328125 -16.609375 Z M 12.0625 -2.828125 C 14.851562 -2.828125 16.25 -3.765625 16.25 -5.640625 C 16.25 -7.515625 14.851562 -8.453125 12.0625 -8.453125 L 6.21875 -8.453125 L 6.21875 -2.828125 Z M 12.0625 -2.828125 "/></g></g></g><g fill="#ffffff" fill-opacity="1"><g transform="translate(482.298613, 24.496942)"><g><path d="M 15.21875 -4.5 L 5.5 -4.5 L 3.578125 0 L -0.140625 0 L 8.609375 -19.453125 L 12.171875 -19.453125 L 20.953125 0 L 17.171875 0 Z M 14.03125 -7.328125 L 10.359375 -15.828125 L 6.71875 -7.328125 Z M 14.03125 -7.328125 "/></g></g></g><g fill="#ffffff" fill-opacity="1"><g transform="translate(504.409735, 24.496942)"><g><path d="M 19.890625 -19.453125 L 19.890625 0 L 16.921875 0 L 6.1875 -13.171875 L 6.1875 0 L 2.609375 0 L 2.609375 -19.453125 L 5.578125 -19.453125 L 16.3125 -6.28125 L 16.3125 -19.453125 Z M 19.890625 -19.453125 "/></g></g></g><g fill="#ffffff" fill-opacity="1"><g transform="translate(528.215351, 24.496942)"><g><path d="M 9.3125 -8.140625 L 6.21875 -4.96875 L 6.21875 0 L 2.609375 0 L 2.609375 -19.453125 L 6.21875 -19.453125 L 6.21875 -9.46875 L 15.828125 -19.453125 L 19.890625 -19.453125 L 11.71875 -10.75 L 20.390625 0 L 16.171875 0 Z M 9.3125 -8.140625 "/></g></g></g><g fill="#ffffff" fill-opacity="1"><g transform="translate(2.728465, 62.691382)"><g><path d="M 15.21875 -4.5 L 5.5 -4.5 L 3.578125 0 L -0.140625 0 L 8.609375 -19.453125 L 12.171875 -19.453125 L 20.953125 0 L 17.171875 0 Z M 14.03125 -7.328125 L 10.359375 -15.828125 L 6.71875 -7.328125 Z M 14.03125 -7.328125 "/></g></g></g><g fill="#ffffff" fill-opacity="1"><g transform="translate(24.839613, 62.691382)"><g><path d="M 19.890625 -19.453125 L 19.890625 0 L 16.921875 0 L 6.1875 -13.171875 L 6.1875 0 L 2.609375 0 L 2.609375 -19.453125 L 5.578125 -19.453125 L 16.3125 -6.28125 L 16.3125 -19.453125 Z M 19.890625 -19.453125 "/></g></g></g><g fill="#ffffff" fill-opacity="1"><g transform="translate(48.645203, 62.691382)"><g><path d="M 2.609375 -19.453125 L 11.109375 -19.453125 C 13.179688 -19.453125 15.023438 -19.046875 16.640625 -18.234375 C 18.253906 -17.429688 19.503906 -16.289062 20.390625 -14.8125 C 21.273438 -13.34375 21.71875 -11.644531 21.71875 -9.71875 C 21.71875 -7.789062 21.273438 -6.09375 20.390625 -4.625 C 19.503906 -3.15625 18.253906 -2.015625 16.640625 -1.203125 C 15.023438 -0.398438 13.179688 0 11.109375 0 L 2.609375 0 Z M 10.953125 -3.0625 C 12.367188 -3.0625 13.617188 -3.332031 14.703125 -3.875 C 15.785156 -4.414062 16.617188 -5.191406 17.203125 -6.203125 C 17.785156 -7.210938 18.078125 -8.382812 18.078125 -9.71875 C 18.078125 -11.050781 17.785156 -12.222656 17.203125 -13.234375 C 16.617188 -14.242188 15.785156 -15.019531 14.703125 -15.5625 C 13.617188 -16.113281 12.367188 -16.390625 10.953125 -16.390625 L 6.21875 -16.390625 L 6.21875 -3.0625 Z M 10.953125 -3.0625 "/></g></g></g><g fill="#ffffff" fill-opacity="1"><g transform="translate(72.895257, 62.691382)"><g/></g></g><g fill="#ffffff" fill-opacity="1"><g transform="translate(81.867503, 62.691382)"><g><path d="M 8.640625 0.28125 C 7.140625 0.28125 5.6875 0.0664062 4.28125 -0.359375 C 2.882812 -0.785156 1.78125 -1.351562 0.96875 -2.0625 L 2.21875 -4.859375 C 3.019531 -4.234375 4 -3.71875 5.15625 -3.3125 C 6.3125 -2.914062 7.472656 -2.71875 8.640625 -2.71875 C 10.085938 -2.71875 11.164062 -2.945312 11.875 -3.40625 C 12.59375 -3.875 12.953125 -4.488281 12.953125 -5.25 C 12.953125 -5.800781 12.75 -6.257812 12.34375 -6.625 C 11.945312 -6.988281 11.441406 -7.269531 10.828125 -7.46875 C 10.222656 -7.675781 9.390625 -7.910156 8.328125 -8.171875 C 6.847656 -8.523438 5.648438 -8.875 4.734375 -9.21875 C 3.816406 -9.570312 3.03125 -10.125 2.375 -10.875 C 1.71875 -11.625 1.390625 -12.640625 1.390625 -13.921875 C 1.390625 -14.992188 1.679688 -15.96875 2.265625 -16.84375 C 2.847656 -17.726562 3.726562 -18.425781 4.90625 -18.9375 C 6.082031 -19.457031 7.519531 -19.71875 9.21875 -19.71875 C 10.40625 -19.71875 11.570312 -19.566406 12.71875 -19.265625 C 13.875 -18.972656 14.867188 -18.550781 15.703125 -18 L 14.5625 -15.203125 C 13.707031 -15.703125 12.816406 -16.078125 11.890625 -16.328125 C 10.960938 -16.585938 10.066406 -16.71875 9.203125 -16.71875 C 7.773438 -16.71875 6.710938 -16.476562 6.015625 -16 C 5.316406 -15.519531 4.96875 -14.878906 4.96875 -14.078125 C 4.96875 -13.523438 5.164062 -13.070312 5.5625 -12.71875 C 5.96875 -12.375 6.472656 -12.097656 7.078125 -11.890625 C 7.691406 -11.679688 8.523438 -11.453125 9.578125 -11.203125 C 11.023438 -10.867188 12.210938 -10.519531 13.140625 -10.15625 C 14.066406 -9.789062 14.859375 -9.238281 15.515625 -8.5 C 16.171875 -7.757812 16.5 -6.757812 16.5 -5.5 C 16.5 -4.425781 16.207031 -3.453125 15.625 -2.578125 C 15.039062 -1.710938 14.15625 -1.019531 12.96875 -0.5 C 11.789062 0.0195312 10.347656 0.28125 8.640625 0.28125 Z M 8.640625 0.28125 "/></g></g></g><g fill="#ffffff" fill-opacity="1"><g transform="translate(100.645322, 62.691382)"><g><path d="M 10.96875 0.28125 C 8.28125 0.28125 6.1875 -0.472656 4.6875 -1.984375 C 3.1875 -3.492188 2.4375 -5.65625 2.4375 -8.46875 L 2.4375 -19.453125 L 6.0625 -19.453125 L 6.0625 -8.609375 C 6.0625 -4.796875 7.707031 -2.890625 11 -2.890625 C 14.28125 -2.890625 15.921875 -4.796875 15.921875 -8.609375 L 15.921875 -19.453125 L 19.46875 -19.453125 L 19.46875 -8.46875 C 19.46875 -5.65625 18.722656 -3.492188 17.234375 -1.984375 C 15.742188 -0.472656 13.65625 0.28125 10.96875 0.28125 Z M 10.96875 0.28125 "/></g></g></g><g fill="#ffffff" fill-opacity="1"><g transform="translate(123.86758, 62.691382)"><g><path d="M 15.328125 0 L 11.359375 -5.6875 C 11.191406 -5.675781 10.941406 -5.671875 10.609375 -5.671875 L 6.21875 -5.671875 L 6.21875 0 L 2.609375 0 L 2.609375 -19.453125 L 10.609375 -19.453125 C 12.296875 -19.453125 13.765625 -19.171875 15.015625 -18.609375 C 16.265625 -18.054688 17.222656 -17.257812 17.890625 -16.21875 C 18.554688 -15.1875 18.890625 -13.957031 18.890625 -12.53125 C 18.890625 -11.0625 18.53125 -9.800781 17.8125 -8.75 C 17.101562 -7.695312 16.082031 -6.910156 14.75 -6.390625 L 19.21875 0 Z M 15.25 -12.53125 C 15.25 -13.769531 14.84375 -14.722656 14.03125 -15.390625 C 13.21875 -16.054688 12.023438 -16.390625 10.453125 -16.390625 L 6.21875 -16.390625 L 6.21875 -8.640625 L 10.453125 -8.640625 C 12.023438 -8.640625 13.21875 -8.976562 14.03125 -9.65625 C 14.84375 -10.332031 15.25 -11.289062 15.25 -12.53125 Z M 15.25 -12.53125 "/></g></g></g><g fill="#ffffff" fill-opacity="1"><g transform="translate(145.478739, 62.691382)"><g><path d="M 20.390625 -19.453125 L 11.921875 0 L 8.359375 0 L -0.140625 -19.453125 L 3.78125 -19.453125 L 10.25 -4.4375 L 16.78125 -19.453125 Z M 20.390625 -19.453125 "/></g></g></g><g fill="#ffffff" fill-opacity="1"><g transform="translate(166.617643, 62.691382)"><g><path d="M 2.609375 -19.453125 L 6.21875 -19.453125 L 6.21875 0 L 2.609375 0 Z M 2.609375 -19.453125 "/></g></g></g><g fill="#ffffff" fill-opacity="1"><g transform="translate(176.645421, 62.691382)"><g><path d="M 20.390625 -19.453125 L 11.921875 0 L 8.359375 0 L -0.140625 -19.453125 L 3.78125 -19.453125 L 10.25 -4.4375 L 16.78125 -19.453125 Z M 20.390625 -19.453125 "/></g></g></g><g fill="#ffffff" fill-opacity="1"><g transform="translate(197.784325, 62.691382)"><g><path d="M 17.203125 -3.03125 L 17.203125 0 L 2.609375 0 L 2.609375 -19.453125 L 16.8125 -19.453125 L 16.8125 -16.421875 L 6.21875 -16.421875 L 6.21875 -11.359375 L 15.609375 -11.359375 L 15.609375 -8.390625 L 6.21875 -8.390625 L 6.21875 -3.03125 Z M 17.203125 -3.03125 "/></g></g></g><g fill="#ffffff" fill-opacity="1"><g transform="translate(217.701016, 62.691382)"><g/></g></g><g fill="#ffffff" fill-opacity="1"><g transform="translate(226.673263, 62.691382)"><g><path d="M 6.5625 -16.390625 L 0.109375 -16.390625 L 0.109375 -19.453125 L 16.609375 -19.453125 L 16.609375 -16.390625 L 10.171875 -16.390625 L 10.171875 0 L 6.5625 0 Z M 6.5625 -16.390625 "/></g></g></g><g fill="#ffffff" fill-opacity="1"><g transform="translate(244.701069, 62.691382)"><g><path d="M 19.890625 -19.453125 L 19.890625 0 L 16.28125 0 L 16.28125 -8.328125 L 6.21875 -8.328125 L 6.21875 0 L 2.609375 0 L 2.609375 -19.453125 L 6.21875 -19.453125 L 6.21875 -11.421875 L 16.28125 -11.421875 L 16.28125 -19.453125 Z M 19.890625 -19.453125 "/></g></g></g><g fill="#ffffff" fill-opacity="1"><g transform="translate(268.506658, 62.691382)"><g><path d="M 17.203125 -3.03125 L 17.203125 0 L 2.609375 0 L 2.609375 -19.453125 L 16.8125 -19.453125 L 16.8125 -16.421875 L 6.21875 -16.421875 L 6.21875 -11.359375 L 15.609375 -11.359375 L 15.609375 -8.390625 L 6.21875 -8.390625 L 6.21875 -3.03125 Z M 17.203125 -3.03125 "/></g></g></g><g fill="#ffffff" fill-opacity="1"><g transform="translate(288.42335, 62.691382)"><g/></g></g><g fill="#ffffff" fill-opacity="1"><g transform="translate(297.395596, 62.691382)"><g><path d="M 6.21875 -16.421875 L 6.21875 -10.5 L 15.609375 -10.5 L 15.609375 -7.453125 L 6.21875 -7.453125 L 6.21875 0 L 2.609375 0 L 2.609375 -19.453125 L 16.8125 -19.453125 L 16.8125 -16.421875 Z M 6.21875 -16.421875 "/></g></g></g><g fill="#ffffff" fill-opacity="1"><g transform="translate(316.395621, 62.691382)"><g><path d="M 2.609375 -19.453125 L 6.21875 -19.453125 L 6.21875 0 L 2.609375 0 Z M 2.609375 -19.453125 "/></g></g></g><g fill="#ffffff" fill-opacity="1"><g transform="translate(326.562291, 62.691382)"><g><path d="M 19.890625 -19.453125 L 19.890625 0 L 16.921875 0 L 6.1875 -13.171875 L 6.1875 0 L 2.609375 0 L 2.609375 -19.453125 L 5.578125 -19.453125 L 16.3125 -6.28125 L 16.3125 -19.453125 Z M 19.890625 -19.453125 "/></g></g></g><g fill="#ffffff" fill-opacity="1"><g transform="translate(350.36788, 62.691382)"><g><path d="M 6.5625 -16.390625 L 0.109375 -16.390625 L 0.109375 -19.453125 L 16.609375 -19.453125 L 16.609375 -16.390625 L 10.171875 -16.390625 L 10.171875 0 L 6.5625 0 Z M 6.5625 -16.390625 "/></g></g></g><g fill="#ffffff" fill-opacity="1"><g transform="translate(368.395687, 62.691382)"><g><path d="M 17.203125 -3.03125 L 17.203125 0 L 2.609375 0 L 2.609375 -19.453125 L 16.8125 -19.453125 L 16.8125 -16.421875 L 6.21875 -16.421875 L 6.21875 -11.359375 L 15.609375 -11.359375 L 15.609375 -8.390625 L 6.21875 -8.390625 L 6.21875 -3.03125 Z M 17.203125 -3.03125 "/></g></g></g><g fill="#ffffff" fill-opacity="1"><g transform="translate(388.229038, 62.691382)"><g><path d="M 11.609375 0.28125 C 9.648438 0.28125 7.878906 -0.148438 6.296875 -1.015625 C 4.710938 -1.878906 3.46875 -3.066406 2.5625 -4.578125 C 1.664062 -6.097656 1.21875 -7.8125 1.21875 -9.71875 C 1.21875 -11.625 1.671875 -13.335938 2.578125 -14.859375 C 3.484375 -16.378906 4.726562 -17.566406 6.3125 -18.421875 C 7.90625 -19.285156 9.679688 -19.71875 11.640625 -19.71875 C 13.234375 -19.71875 14.6875 -19.441406 16 -18.890625 C 17.3125 -18.335938 18.421875 -17.53125 19.328125 -16.46875 L 17 -14.28125 C 15.59375 -15.800781 13.863281 -16.5625 11.8125 -16.5625 C 10.476562 -16.5625 9.28125 -16.269531 8.21875 -15.6875 C 7.164062 -15.101562 6.34375 -14.289062 5.75 -13.25 C 5.15625 -12.21875 4.859375 -11.039062 4.859375 -9.71875 C 4.859375 -8.40625 5.15625 -7.226562 5.75 -6.1875 C 6.34375 -5.15625 7.164062 -4.347656 8.21875 -3.765625 C 9.28125 -3.179688 10.476562 -2.890625 11.8125 -2.890625 C 13.863281 -2.890625 15.59375 -3.65625 17 -5.1875 L 19.328125 -2.96875 C 18.421875 -1.914062 17.304688 -1.109375 15.984375 -0.546875 C 14.660156 0.00390625 13.203125 0.28125 11.609375 0.28125 Z M 11.609375 0.28125 "/></g></g></g><g fill="#ffffff" fill-opacity="1"><g transform="translate(409.729066, 62.691382)"><g><path d="M 19.890625 -19.453125 L 19.890625 0 L 16.28125 0 L 16.28125 -8.328125 L 6.21875 -8.328125 L 6.21875 0 L 2.609375 0 L 2.609375 -19.453125 L 6.21875 -19.453125 L 6.21875 -11.421875 L 16.28125 -11.421875 L 16.28125 -19.453125 Z M 19.890625 -19.453125 "/></g></g></g><g fill="#ffffff" fill-opacity="1"><g transform="translate(433.534655, 62.691382)"><g/></g></g><g fill="#ffffff" fill-opacity="1"><g transform="translate(442.506902, 62.691382)"><g><path d="M 6.5625 -16.390625 L 0.109375 -16.390625 L 0.109375 -19.453125 L 16.609375 -19.453125 L 16.609375 -16.390625 L 10.171875 -16.390625 L 10.171875 0 L 6.5625 0 Z M 6.5625 -16.390625 "/></g></g></g><g fill="#ffffff" fill-opacity="1"><g transform="translate(460.340239, 62.691382)"><g><path d="M 8.640625 0.28125 C 7.140625 0.28125 5.6875 0.0664062 4.28125 -0.359375 C 2.882812 -0.785156 1.78125 -1.351562 0.96875 -2.0625 L 2.21875 -4.859375 C 3.019531 -4.234375 4 -3.71875 5.15625 -3.3125 C 6.3125 -2.914062 7.472656 -2.71875 8.640625 -2.71875 C 10.085938 -2.71875 11.164062 -2.945312 11.875 -3.40625 C 12.59375 -3.875 12.953125 -4.488281 12.953125 -5.25 C 12.953125 -5.800781 12.75 -6.257812 12.34375 -6.625 C 11.945312 -6.988281 11.441406 -7.269531 10.828125 -7.46875 C 10.222656 -7.675781 9.390625 -7.910156 8.328125 -8.171875 C 6.847656 -8.523438 5.648438 -8.875 4.734375 -9.21875 C 3.816406 -9.570312 3.03125 -10.125 2.375 -10.875 C 1.71875 -11.625 1.390625 -12.640625 1.390625 -13.921875 C 1.390625 -14.992188 1.679688 -15.96875 2.265625 -16.84375 C 2.847656 -17.726562 3.726562 -18.425781 4.90625 -18.9375 C 6.082031 -19.457031 7.519531 -19.71875 9.21875 -19.71875 C 10.40625 -19.71875 11.570312 -19.566406 12.71875 -19.265625 C 13.875 -18.972656 14.867188 -18.550781 15.703125 -18 L 14.5625 -15.203125 C 13.707031 -15.703125 12.816406 -16.078125 11.890625 -16.328125 C 10.960938 -16.585938 10.066406 -16.71875 9.203125 -16.71875 C 7.773438 -16.71875 6.710938 -16.476562 6.015625 -16 C 5.316406 -15.519531 4.96875 -14.878906 4.96875 -14.078125 C 4.96875 -13.523438 5.164062 -13.070312 5.5625 -12.71875 C 5.96875 -12.375 6.472656 -12.097656 7.078125 -11.890625 C 7.691406 -11.679688 8.523438 -11.453125 9.578125 -11.203125 C 11.023438 -10.867188 12.210938 -10.519531 13.140625 -10.15625 C 14.066406 -9.789062 14.859375 -9.238281 15.515625 -8.5 C 16.171875 -7.757812 16.5 -6.757812 16.5 -5.5 C 16.5 -4.425781 16.207031 -3.453125 15.625 -2.578125 C 15.039062 -1.710938 14.15625 -1.019531 12.96875 -0.5 C 11.789062 0.0195312 10.347656 0.28125 8.640625 0.28125 Z M 8.640625 0.28125 "/></g></g></g><g fill="#ffffff" fill-opacity="1"><g transform="translate(479.118084, 62.691382)"><g><path d="M 10.96875 0.28125 C 8.28125 0.28125 6.1875 -0.472656 4.6875 -1.984375 C 3.1875 -3.492188 2.4375 -5.65625 2.4375 -8.46875 L 2.4375 -19.453125 L 6.0625 -19.453125 L 6.0625 -8.609375 C 6.0625 -4.796875 7.707031 -2.890625 11 -2.890625 C 14.28125 -2.890625 15.921875 -4.796875 15.921875 -8.609375 L 15.921875 -19.453125 L 19.46875 -19.453125 L 19.46875 -8.46875 C 19.46875 -5.65625 18.722656 -3.492188 17.234375 -1.984375 C 15.742188 -0.472656 13.65625 0.28125 10.96875 0.28125 Z M 10.96875 0.28125 "/></g></g></g><g fill="#ffffff" fill-opacity="1"><g transform="translate(502.340369, 62.691382)"><g><path d="M 19.890625 -19.453125 L 19.890625 0 L 16.921875 0 L 6.1875 -13.171875 L 6.1875 0 L 2.609375 0 L 2.609375 -19.453125 L 5.578125 -19.453125 L 16.3125 -6.28125 L 16.3125 -19.453125 Z M 19.890625 -19.453125 "/></g></g></g><g fill="#ffffff" fill-opacity="1"><g transform="translate(526.145931, 62.691382)"><g><path d="M 15.21875 -4.5 L 5.5 -4.5 L 3.578125 0 L -0.140625 0 L 8.609375 -19.453125 L 12.171875 -19.453125 L 20.953125 0 L 17.171875 0 Z M 14.03125 -7.328125 L 10.359375 -15.828125 L 6.71875 -7.328125 Z M 14.03125 -7.328125 "/></g></g></g><g fill="#ffffff" fill-opacity="1"><g transform="translate(548.25708, 62.691382)"><g><path d="M 20.46875 0 L 20.453125 -12.890625 L 14.0625 -2.21875 L 12.453125 -2.21875 L 6.0625 -12.71875 L 6.0625 0 L 2.609375 0 L 2.609375 -19.453125 L 5.578125 -19.453125 L 13.3125 -6.5625 L 20.890625 -19.453125 L 23.859375 -19.453125 L 23.890625 0 Z M 20.46875 0 "/></g></g></g><g fill="#ffffff" fill-opacity="1"><g transform="translate(576.090432, 62.691382)"><g><path d="M 2.609375 -19.453125 L 6.21875 -19.453125 L 6.21875 0 L 2.609375 0 Z M 2.609375 -19.453125 "/></g></g></g></g></g><g transform="matrix(1, 0, 0, 1, 373, 1300)"><g clip-path="url(#d555b23cfe)"><g fill="#ffffff" fill-opacity="1"><g transform="translate(2.567003, 38.541452)"><g><path d="M 22.671875 -6.25 L 9.125 -6.25 L 6.546875 0 L -0.375 0 L 12.625 -29.171875 L 19.296875 -29.171875 L 32.34375 0 L 25.25 0 Z M 20.546875 -11.375 L 15.921875 -22.546875 L 11.296875 -11.375 Z M 20.546875 -11.375 "/></g></g></g><g fill="#ffffff" fill-opacity="1"><g transform="translate(34.483565, 38.541452)"><g><path d="M 31.71875 -22.75 C 34.519531 -22.75 36.742188 -21.921875 38.390625 -20.265625 C 40.046875 -18.617188 40.875 -16.140625 40.875 -12.828125 L 40.875 0 L 34.375 0 L 34.375 -11.828125 C 34.375 -13.609375 34.003906 -14.9375 33.265625 -15.8125 C 32.535156 -16.6875 31.488281 -17.125 30.125 -17.125 C 28.601562 -17.125 27.394531 -16.628906 26.5 -15.640625 C 25.613281 -14.660156 25.171875 -13.195312 25.171875 -11.25 L 25.171875 0 L 18.671875 0 L 18.671875 -11.828125 C 18.671875 -15.359375 17.253906 -17.125 14.421875 -17.125 C 12.921875 -17.125 11.722656 -16.628906 10.828125 -15.640625 C 9.941406 -14.660156 9.5 -13.195312 9.5 -11.25 L 9.5 0 L 3 0 L 3 -22.421875 L 9.203125 -22.421875 L 9.203125 -19.828125 C 10.035156 -20.773438 11.054688 -21.5 12.265625 -22 C 13.472656 -22.5 14.800781 -22.75 16.25 -22.75 C 17.832031 -22.75 19.265625 -22.4375 20.546875 -21.8125 C 21.828125 -21.1875 22.851562 -20.273438 23.625 -19.078125 C 24.539062 -20.253906 25.703125 -21.160156 27.109375 -21.796875 C 28.515625 -22.429688 30.050781 -22.75 31.71875 -22.75 Z M 31.71875 -22.75 "/></g></g></g><g fill="#ffffff" fill-opacity="1"><g transform="translate(78.191753, 38.541452)"><g><path d="M 9.203125 -19.453125 C 9.984375 -20.546875 11.03125 -21.367188 12.34375 -21.921875 C 13.664062 -22.472656 15.191406 -22.75 16.921875 -22.75 L 16.921875 -16.75 C 16.191406 -16.800781 15.703125 -16.828125 15.453125 -16.828125 C 13.597656 -16.828125 12.140625 -16.304688 11.078125 -15.265625 C 10.023438 -14.222656 9.5 -12.660156 9.5 -10.578125 L 9.5 0 L 3 0 L 3 -22.421875 L 9.203125 -22.421875 Z M 9.203125 -19.453125 "/></g></g></g><g fill="#ffffff" fill-opacity="1"><g transform="translate(96.150021, 38.541452)"><g/></g></g><g fill="#ffffff" fill-opacity="1"><g transform="translate(107.941646, 38.541452)"><g><path d="M 26.046875 -5.421875 L 26.046875 0 L 3.453125 0 L 3.453125 -29.171875 L 25.5 -29.171875 L 25.5 -23.75 L 10.171875 -23.75 L 10.171875 -17.421875 L 23.71875 -17.421875 L 23.71875 -12.171875 L 10.171875 -12.171875 L 10.171875 -5.421875 Z M 26.046875 -5.421875 "/></g></g></g><g fill="#ffffff" fill-opacity="1"><g transform="translate(135.899904, 38.541452)"><g><path d="M 3 -30.921875 L 9.5 -30.921875 L 9.5 0 L 3 0 Z M 3 -30.921875 "/></g></g></g><g fill="#ffffff" fill-opacity="1"><g transform="translate(148.441541, 38.541452)"><g><path d="M 16.625 -22.75 C 19.40625 -22.75 21.648438 -21.914062 23.359375 -20.25 C 25.066406 -18.582031 25.921875 -16.109375 25.921875 -12.828125 L 25.921875 0 L 19.421875 0 L 19.421875 -11.828125 C 19.421875 -13.609375 19.03125 -14.9375 18.25 -15.8125 C 17.46875 -16.6875 16.34375 -17.125 14.875 -17.125 C 13.238281 -17.125 11.929688 -16.613281 10.953125 -15.59375 C 9.984375 -14.582031 9.5 -13.078125 9.5 -11.078125 L 9.5 0 L 3 0 L 3 -30.921875 L 9.5 -30.921875 L 9.5 -20.078125 C 10.363281 -20.941406 11.40625 -21.601562 12.625 -22.0625 C 13.84375 -22.519531 15.175781 -22.75 16.625 -22.75 Z M 16.625 -22.75 "/></g></g></g><g fill="#ffffff" fill-opacity="1"><g transform="translate(177.233124, 38.541452)"><g><path d="M 12.046875 -22.75 C 15.515625 -22.75 18.179688 -21.921875 20.046875 -20.265625 C 21.910156 -18.617188 22.84375 -16.128906 22.84375 -12.796875 L 22.84375 0 L 16.75 0 L 16.75 -2.796875 C 15.53125 -0.710938 13.253906 0.328125 9.921875 0.328125 C 8.191406 0.328125 6.695312 0.0351562 5.4375 -0.546875 C 4.175781 -1.128906 3.210938 -1.929688 2.546875 -2.953125 C 1.878906 -3.984375 1.546875 -5.148438 1.546875 -6.453125 C 1.546875 -8.535156 2.328125 -10.175781 3.890625 -11.375 C 5.460938 -12.570312 7.890625 -13.171875 11.171875 -13.171875 L 16.328125 -13.171875 C 16.328125 -14.585938 15.894531 -15.675781 15.03125 -16.4375 C 14.175781 -17.195312 12.890625 -17.578125 11.171875 -17.578125 C 9.972656 -17.578125 8.796875 -17.390625 7.640625 -17.015625 C 6.492188 -16.640625 5.515625 -16.132812 4.703125 -15.5 L 2.375 -20.046875 C 3.59375 -20.910156 5.054688 -21.578125 6.765625 -22.046875 C 8.472656 -22.515625 10.234375 -22.75 12.046875 -22.75 Z M 11.546875 -4.046875 C 12.648438 -4.046875 13.632812 -4.300781 14.5 -4.8125 C 15.363281 -5.320312 15.972656 -6.078125 16.328125 -7.078125 L 16.328125 -9.375 L 11.875 -9.375 C 9.207031 -9.375 7.875 -8.5 7.875 -6.75 C 7.875 -5.914062 8.195312 -5.253906 8.84375 -4.765625 C 9.5 -4.285156 10.398438 -4.046875 11.546875 -4.046875 Z M 11.546875 -4.046875 "/></g></g></g><g fill="#ffffff" fill-opacity="1"><g transform="translate(202.941373, 38.541452)"><g><path d="M 9.203125 -19.453125 C 9.984375 -20.546875 11.03125 -21.367188 12.34375 -21.921875 C 13.664062 -22.472656 15.191406 -22.75 16.921875 -22.75 L 16.921875 -16.75 C 16.191406 -16.800781 15.703125 -16.828125 15.453125 -16.828125 C 13.597656 -16.828125 12.140625 -16.304688 11.078125 -15.265625 C 10.023438 -14.222656 9.5 -12.660156 9.5 -10.578125 L 9.5 0 L 3 0 L 3 -22.421875 L 9.203125 -22.421875 Z M 9.203125 -19.453125 "/></g></g></g><g fill="#ffffff" fill-opacity="1"><g transform="translate(220.524635, 38.541452)"><g><path d="M 13.671875 0.328125 C 11.304688 0.328125 9.1875 -0.160156 7.3125 -1.140625 C 5.4375 -2.128906 3.96875 -3.5 2.90625 -5.25 C 1.851562 -7 1.328125 -8.984375 1.328125 -11.203125 C 1.328125 -13.429688 1.851562 -15.421875 2.90625 -17.171875 C 3.96875 -18.921875 5.4375 -20.285156 7.3125 -21.265625 C 9.1875 -22.253906 11.304688 -22.75 13.671875 -22.75 C 16.023438 -22.75 18.132812 -22.253906 20 -21.265625 C 21.863281 -20.285156 23.320312 -18.921875 24.375 -17.171875 C 25.4375 -15.421875 25.96875 -13.429688 25.96875 -11.203125 C 25.96875 -8.984375 25.4375 -7 24.375 -5.25 C 23.320312 -3.5 21.863281 -2.128906 20 -1.140625 C 18.132812 -0.160156 16.023438 0.328125 13.671875 0.328125 Z M 13.671875 -5 C 15.335938 -5 16.703125 -5.5625 17.765625 -6.6875 C 18.835938 -7.8125 19.375 -9.316406 19.375 -11.203125 C 19.375 -13.097656 18.835938 -14.609375 17.765625 -15.734375 C 16.703125 -16.859375 15.335938 -17.421875 13.671875 -17.421875 C 12.003906 -17.421875 10.628906 -16.859375 9.546875 -15.734375 C 8.460938 -14.609375 7.921875 -13.097656 7.921875 -11.203125 C 7.921875 -9.316406 8.460938 -7.8125 9.546875 -6.6875 C 10.628906 -5.5625 12.003906 -5 13.671875 -5 Z M 13.671875 -5 "/></g></g></g><g fill="#ffffff" fill-opacity="1"><g transform="translate(247.816221, 38.541452)"><g><path d="M 16.625 -22.75 C 19.40625 -22.75 21.648438 -21.914062 23.359375 -20.25 C 25.066406 -18.582031 25.921875 -16.109375 25.921875 -12.828125 L 25.921875 0 L 19.421875 0 L 19.421875 -11.828125 C 19.421875 -13.609375 19.03125 -14.9375 18.25 -15.8125 C 17.46875 -16.6875 16.34375 -17.125 14.875 -17.125 C 13.238281 -17.125 11.929688 -16.613281 10.953125 -15.59375 C 9.984375 -14.582031 9.5 -13.078125 9.5 -11.078125 L 9.5 0 L 3 0 L 3 -22.421875 L 9.203125 -22.421875 L 9.203125 -19.796875 C 10.066406 -20.742188 11.132812 -21.472656 12.40625 -21.984375 C 13.6875 -22.492188 15.09375 -22.75 16.625 -22.75 Z M 16.625 -22.75 "/></g></g></g><g fill="#ffffff" fill-opacity="1"><g transform="translate(276.191128, 38.541452)"><g><path d="M 25.25 -22.421875 L 15.125 1.375 C 14.09375 3.957031 12.820312 5.773438 11.3125 6.828125 C 9.800781 7.890625 7.972656 8.421875 5.828125 8.421875 C 4.660156 8.421875 3.507812 8.238281 2.375 7.875 C 1.238281 7.507812 0.304688 7.007812 -0.421875 6.375 L 1.953125 1.75 C 2.453125 2.195312 3.03125 2.546875 3.6875 2.796875 C 4.34375 3.046875 4.988281 3.171875 5.625 3.171875 C 6.507812 3.171875 7.226562 2.953125 7.78125 2.515625 C 8.34375 2.085938 8.847656 1.375 9.296875 0.375 L 9.375 0.171875 L -0.328125 -22.421875 L 6.375 -22.421875 L 12.671875 -7.203125 L 19 -22.421875 Z M 25.25 -22.421875 "/></g></g></g></g></g></g></svg>