<?xml version="1.0" encoding="UTF-8"?>
<svg version="1.1" xmlns="http://www.w3.org/2000/svg" width="240" height="240">
<path d="M0 0 C79.2 0 158.4 0 240 0 C240 79.2 240 158.4 240 240 C160.8 240 81.6 240 0 240 C0 160.8 0 81.6 0 0 Z " fill="#FEFEFF" transform="translate(0,0)"/>
<path d="M0 0 C13.99740145 11.12067972 24.75619956 24.91523233 30.1875 42.125 C30.63492246 47.51352264 30.63492246 47.51352264 28.3125 50.6875 C22.30668868 55.37203283 16.70901221 57.87141463 9.1875 59.125 C9.1875 64.405 9.1875 69.685 9.1875 75.125 C10.46625 75.33125 11.745 75.5375 13.0625 75.75 C19.70788604 77.2138806 26.36056683 80.38460025 30.1875 86.125 C30.75290248 91.17012978 29.34696361 95.09225724 27.3125 99.625 C27.00223877 100.32061035 26.69197754 101.0162207 26.37231445 101.73291016 C16.68532722 122.53359525 -1.20552687 139.23245287 -22.8125 147.125 C-23.823125 147.51558594 -24.83375 147.90617188 -25.875 148.30859375 C-48.27579508 155.6652185 -74.09640372 151.97146899 -94.80078125 141.6328125 C-102.9414707 137.2193129 -109.31082129 131.61744338 -115.8125 125.125 C-116.92625 124.02865234 -116.92625 124.02865234 -118.0625 122.91015625 C-127.40706764 113.1093109 -132.95347735 100.95849393 -136.8125 88.125 C-137.36550781 86.30742187 -137.36550781 86.30742187 -137.9296875 84.453125 C-139.22901356 79.09805463 -139.10355627 73.73101165 -139.0625 68.25 C-139.07023437 67.22519531 -139.07796875 66.20039062 -139.0859375 65.14453125 C-139.06922444 58.56794052 -138.35382815 52.51292535 -136.8125 46.125 C-136.63170898 45.3299707 -136.45091797 44.53494141 -136.26464844 43.71582031 C-132.83821978 29.37943476 -124.25520231 17.18093556 -113.8125 7.125 C-112.60980469 5.91070312 -112.60980469 5.91070312 -111.3828125 4.671875 C-81.64376928 -23.99461257 -32.23901304 -24.55656484 0 0 Z " fill="#056CFE" transform="translate(173.8125,52.875)"/>
<path d="M0 0 C1.16015625 -0.020625 2.3203125 -0.04125 3.515625 -0.0625 C17.54535566 -0.12527284 30.40378316 3.0545756 41 12.6875 C46.37598765 18.42777429 50.04026716 25.43815438 53.875 32.25 C54.42929688 33.20648438 54.98359375 34.16296875 55.5546875 35.1484375 C58.875 40.94491525 58.875 40.94491525 58.875 43.25 C56.89656869 43.33256205 54.91708061 43.38988122 52.9375 43.4375 C51.83535156 43.47230469 50.73320312 43.50710937 49.59765625 43.54296875 C41.18301881 42.8807465 35.70928182 39.82553889 29.5 34.3125 C17.6635751 24.47328823 6.98947672 22.96905331 -8.125 24.25 C-16.24489482 25.46297194 -22.81997866 29.0377179 -27.91796875 35.53515625 C-33.2546711 43.3310516 -33.42430213 49.42879211 -33.5625 58.75 C-33.63114258 60.59464844 -33.63114258 60.59464844 -33.70117188 62.4765625 C-33.81697271 71.9621616 -31.8395531 79.12149856 -25.31762695 86.21606445 C-16.45007524 94.56035491 -5.37157963 94.71651276 6.1328125 94.515625 C16.46911603 94.10136058 22.68534866 90.00494719 30.38671875 83.37109375 C36.83435481 77.87491419 43.95035972 75.01336496 52.515625 75.35546875 C54.64379737 75.58635538 56.76165218 75.90913745 58.875 76.25 C50.31916892 94.32419315 41.96901126 108.39263815 22.875 116.25 C15.36159793 118.77116381 7.93278269 118.58179937 0.0625 118.5625 C-1.24009766 118.57861328 -2.54269531 118.59472656 -3.88476562 118.61132812 C-15.49451864 118.6171651 -25.40297353 116.80141964 -35.125 110.25 C-35.83011719 109.78851563 -36.53523438 109.32703125 -37.26171875 108.8515625 C-48.00313438 100.63640441 -58.9377452 81.96534269 -61.8046875 68.69921875 C-64.52572199 47.89325989 -55.70266122 32.56734872 -43.9140625 16.17578125 C-32.51016894 2.46783572 -16.84441375 0.07339614 0 0 Z " fill="#016BFE" transform="translate(121.125,60.75)"/>
<path d="M0 0 C12.5843152 10.82362308 21.71104105 22.05947338 26.65234375 38.28125 C25.09658397 39.12709998 23.53238255 39.95743399 21.96484375 40.78125 C21.09472656 41.2453125 20.22460938 41.709375 19.328125 42.1875 C16.4031921 43.38309301 14.77360564 43.71103933 11.65234375 43.28125 C10.03417969 41.42041016 10.03417969 41.42041016 8.63671875 38.8203125 C7.85083374 37.40697632 7.85083374 37.40697632 7.04907227 35.96508789 C6.23394165 34.45096313 6.23394165 34.45096313 5.40234375 32.90625 C-2.67350369 18.68384193 -10.04615793 8.75444479 -26.32324219 3.66333008 C-33.02853273 1.93483813 -39.70881779 1.94950743 -46.59765625 1.96875 C-48.30501953 1.94458008 -48.30501953 1.94458008 -50.046875 1.91992188 C-64.98795975 1.91144226 -77.10407113 5.23879764 -88.32104492 15.19873047 C-91.79733186 18.77091787 -94.15080396 22.90439273 -96.59765625 27.21875 C-97.10039063 28.07404297 -97.603125 28.92933594 -98.12109375 29.81054688 C-106.37578965 43.97534572 -111.37004896 56.74600075 -107.09765625 73.46875 C-101.76199528 88.8828817 -91.15766622 106.58773833 -76.34765625 114.28125 C-73.05996509 115.51896902 -69.76119955 116.46176378 -66.34765625 117.28125 C-65.77499023 117.45253418 -65.20232422 117.62381836 -64.61230469 117.80029297 C-59.81655566 118.81879508 -54.82703915 118.54754903 -49.94262695 118.57641602 C-47.94784359 118.59342858 -45.95334693 118.63727764 -43.95898438 118.68164062 C-30.64574774 118.76787484 -17.28347993 115.90991237 -7.38598633 106.39550781 C-2.16318003 100.60780084 1.80994284 94.48549566 5.65234375 87.71875 C6.23628906 86.71005859 6.82023438 85.70136719 7.421875 84.66210938 C8.8414089 82.20701387 10.25127457 79.74691364 11.65234375 77.28125 C12.90015625 77.41402344 14.14796875 77.54679687 15.43359375 77.68359375 C16.13548828 77.75827881 16.83738281 77.83296387 17.56054688 77.90991211 C20.57841769 78.44564758 23.01518042 79.76488109 25.65234375 81.28125 C24.99040055 95.84400042 13.53817314 107.98637242 3.671875 117.63671875 C-11.55566811 131.46678166 -32.00334988 137.21262864 -52.20703125 136.56640625 C-72.67827358 135.43069898 -91.85679444 125.42183915 -105.91015625 110.71875 C-121.59454931 92.62558453 -125.71177923 71.65113919 -124.34765625 48.28125 C-122.26589718 30.06870204 -110.61993996 12.81961861 -96.9140625 1.1875 C-68.25547971 -20.09924033 -28.83422752 -22.54706513 0 0 Z " fill="#F9FBFF" transform="translate(168.34765625,59.71875)"/>
<path d="M0 0 C1.25425781 -0.02578125 2.50851563 -0.0515625 3.80078125 -0.078125 C11.98448559 0.61276059 17.14963565 3.97194181 23.25 9.25 C32.31967486 17.04822512 40.1608039 19.24249924 52 19.8125 C53.25393555 19.87727539 53.25393555 19.87727539 54.53320312 19.94335938 C56.58446935 20.04885307 58.6359648 20.14987315 60.6875 20.25 C60.6875 24.87 60.6875 29.49 60.6875 34.25 C59.50414062 34.28738281 58.32078125 34.32476562 57.1015625 34.36328125 C42.41321584 34.92456982 33.44693375 36.92355254 21.6875 46.25 C20.25465991 47.38092905 18.81764564 48.50660614 17.375 49.625 C16.80136719 50.08648437 16.22773438 50.54796875 15.63671875 51.0234375 C8.17988759 55.71571202 -1.72370343 55.31787326 -10.11328125 53.71484375 C-16.4058887 51.77947036 -20.58134021 48.8665527 -24.125 43.25 C-28.19878074 34.55926776 -27.76389314 23.12501719 -25.49609375 13.9453125 C-22.82432467 7.81979315 -18.3279676 4.04142418 -12.3125 1.25 C-8.22791242 0.13102895 -4.22216161 0.05175275 0 0 Z " fill="#006CFE" transform="translate(122.3125,92.75)"/>
<path d="M0 0 C3.83416173 2.81999749 7.41399242 5.87447493 11 9 C19.19955164 15.46953635 27.90676467 15.4680403 38 16 C40 21.625 40 21.625 40 25 C23.76105689 25.47761597 14.09167766 24.38305469 1 14 C-0.43284009 12.86907095 -1.86985436 11.74339386 -3.3125 10.625 C-3.88613281 10.16351563 -4.45976562 9.70203125 -5.05078125 9.2265625 C-12.53745571 4.51550883 -22.37100783 4.99510321 -30.80078125 6.5 C-37.14265944 8.37591691 -40.91807361 11.75982735 -44.1015625 17.55859375 C-46.42604934 22.32430761 -46.654198 26.63575488 -46.5625 31.875 C-46.55154297 32.75615479 -46.54058594 33.63730957 -46.52929688 34.54516602 C-46.30814227 41.1841045 -45.52688444 46.84196341 -41 52 C-32.8335873 59.01389478 -23.25264119 58.54885659 -13 58 C-6.5385064 57.11397579 -2.33248805 52.920169 2.42285156 48.77612305 C11.48063118 40.98178609 19.67479478 38.81809182 31.3125 38.9375 C32.14845703 38.94201172 32.98441406 38.94652344 33.84570312 38.95117188 C35.89716649 38.96289452 37.94859273 38.98082797 40 39 C39.125 46.875 39.125 46.875 38 48 C34.35337239 48.38325639 30.70964973 48.71977164 27.05273438 48.98632812 C19.17180987 49.72049504 13.26742848 52.30622256 7.625 57.9375 C-3.05623621 67.85975755 -13.89707336 68.57335224 -27.76123047 68.13183594 C-37.14235749 67.57940316 -43.90191385 63.3257576 -50.25 56.625 C-55.84240179 48.23639732 -56.65227299 42.14788989 -56.5625 32.125 C-56.58634766 30.90941406 -56.61019531 29.69382813 -56.63476562 28.44140625 C-56.61972967 19.14918712 -54.790802 12.56665735 -48.82421875 5.37890625 C-36.23889998 -5.3197651 -14.7671115 -8.73971905 0 0 Z " fill="#0BE6EF" transform="translate(143,88)"/>
</svg>
